<svg xmlns="http://www.w3.org/2000/svg" width="240.072" height="57.884" viewBox="0 0 240.072 57.884">
  <g id="Group_186" data-name="Group 186" transform="translate(-88 -25.992)">
    <g id="Group_181" data-name="Group 181" transform="translate(88 25.992)">
      <path id="Path_61" data-name="Path 61" d="M50.032,1.41V43.564a1.211,1.211,0,0,1-.628,1.061L25.422,57.779a.849.849,0,0,1-.817,0l-4.829-2.647a.637.637,0,0,1,0-1.116L43.149,41.195a1.21,1.21,0,0,0,.628-1.061V8.217a.678.678,0,0,0-.788-.669,113.449,113.449,0,0,1-35.943,0,.678.678,0,0,0-.788.669l0,31.917a1.21,1.21,0,0,0,.628,1.061l12.67,6.951a.607.607,0,0,1,0,1.064l-4.924,2.7a.747.747,0,0,1-.719,0L.63,44.593A1.211,1.211,0,0,1,0,43.533V6.188H0V.885A.886.886,0,0,1,1.088.023a107.184,107.184,0,0,0,47.851,0,.886.886,0,0,1,1.088.862v.528Z" transform="translate(0 0)" fill="#117ba3"/>
      <path id="Path_62" data-name="Path 62" d="M47.582,34.127c0,6.1-4.1,9.265-9.773,9.265h-.9a.641.641,0,0,1-.641-.641v-4.2a.7.7,0,0,1,.7-.7h.117q.364,0,.695-.025c2.605-.2,3.7-1.549,3.7-3.7,0-2.437-1.368-3.789-4.475-3.789H24.713v1.6a.428.428,0,0,1-.712.319l-4.824-4.294a.782.782,0,0,1,0-1.169L24,22.5a.428.428,0,0,1,.712.32v1.6h13.1c5.673,0,9.773,3.526,9.773,9.7m-14.636-.811h-4.83a.636.636,0,0,0-.627.645V51.249a1.07,1.07,0,0,0,.538.933l4.73,2.666a.552.552,0,0,0,.817-.5V33.961a.636.636,0,0,0-.627-.645" transform="translate(-8.59 -10.17)" fill="#8db72f"/>
    </g>
    <g id="Group_182" data-name="Group 182" transform="translate(146.218 39.982)">
      <path id="Path_63" data-name="Path 63" d="M105.233,25.5h8.984c4.959,0,8.546,2.625,8.546,8.021,0,5.338-3.588,7.993-8.546,7.993h-3.879v5.571h-5.1Zm8.284,11.521c2.713,0,3.909-1.167,3.909-3.5,0-2.392-1.2-3.559-3.909-3.559h-3.179v7.059Z" transform="translate(-105.233 -23.092)" fill="#e76a47"/>
      <path id="Path_64" data-name="Path 64" d="M151.559,40.258a4.677,4.677,0,0,0,3.791,2.771V47.2c-3.879,0-5.892-.992-7.788-4.375l-1.2-2.129h-3.821v6.388h-5.1V25.5h9.246c5.075,0,8.488,2.655,8.488,7.642a6.745,6.745,0,0,1-4.142,6.184Zm-9.013-10.384v6.563h3.879a3.107,3.107,0,0,0,3.413-3.3,3.052,3.052,0,0,0-3.354-3.267Z" transform="translate(-117.539 -23.092)" fill="#e76a47"/>
      <path id="Path_65" data-name="Path 65" d="M171.381,25.5h16.106v4.463h-11v4.026h8.11V38.3h-8.11v4.317h11.381v4.463H171.381Z" transform="translate(-130.508 -23.092)" fill="#e76a47"/>
      <path id="Path_66" data-name="Path 66" d="M221.331,36.025c0-6.86,4.224-11.443,11.263-11.443a11.921,11.921,0,0,1,7.52,2.636l-2.128,3.714a7.832,7.832,0,0,0-5.242-1.767c-3.5,0-5.962,2.516-5.962,6.86,0,4.194,2.337,6.86,5.962,6.86a7.327,7.327,0,0,0,5.481-2.486l2.726,3.8c-2.367,2.307-5.3,3.265-8.986,3.265-6.591,0-10.635-4.613-10.635-11.443" transform="translate(-149.593 -22.741)" fill="#e76a47"/>
      <path id="Path_67" data-name="Path 67" d="M256.419,31.913h4.25l.489,2.782a5.192,5.192,0,0,1,4.585-3.18,5.071,5.071,0,0,1,1.865.336v4.739a6.515,6.515,0,0,0-2.14-.4c-2.477,0-3.884,1.345-3.884,4.617V49.28h-5.167Z" transform="translate(-163 -25.391)" fill="#e76a47"/>
      <path id="Path_68" data-name="Path 68" d="M276.016,40.615c0-5.717,3.21-9.05,9.356-9.05,6.115,0,9.356,3.332,9.356,9.05s-3.241,9.05-9.356,9.05c-6.146,0-9.356-3.332-9.356-9.05m13.484,0c0-3.363-1.284-4.77-3.944-4.77s-3.944,1.406-3.944,4.77,1.284,4.77,3.944,4.77,3.944-1.406,3.944-4.77" transform="translate(-170.488 -25.409)" fill="#e76a47"/>
      <path id="Path_69" data-name="Path 69" d="M310.021,46.047V23.138l5.137-.083V31.1a5.123,5.123,0,0,1,4.953-2.782c3.761,0,6.054,2.324,6.054,7.094v10.64H321V35.407c0-1.8-.918-2.721-2.6-2.721-2.049,0-3.211,1.07-3.211,3.73v9.631Z" transform="translate(-183.481 -22.158)" fill="#e76a47"/>
      <path id="Path_70" data-name="Path 70" d="M341.046,31.932h4.25l.489,2.782a5.621,5.621,0,0,1,5.29-3.149c3.944,0,6.115,2.324,6.115,7.094V49.3h-5.167V38.659c0-1.8-.918-2.721-2.6-2.721-2.049,0-3.211.917-3.211,3.577V49.3h-5.167Z" transform="translate(-195.336 -25.409)" fill="#e76a47"/>
      <path id="Path_71" data-name="Path 71" d="M376.482,47.586l1.8-3.516a9.99,9.99,0,0,0,4.861,1.314c1.621,0,2.324-.275,2.324-1.008,0-.7-.887-1.162-2.415-1.621-3.332-1.009-6.085-2.14-6.085-5.656,0-3.363,2.263-5.534,6.6-5.534a13.407,13.407,0,0,1,6.39,1.315l-1.437,3.73a13.943,13.943,0,0,0-4.433-.856c-1.254,0-1.865.4-1.865,1.009,0,.672.581,1.07,2.049,1.529,3.822,1.223,6.451,2.385,6.451,6.085,0,2.874-2.232,5.289-7.186,5.289a11.453,11.453,0,0,1-7.062-2.079" transform="translate(-208.875 -25.409)" fill="#e76a47"/>
      <path id="Path_72" data-name="Path 72" d="M369.047,21.6V25.14h1.364a10.964,10.964,0,0,1-.983,4.052H372.5a8.738,8.738,0,0,0,1.635-3.74,6.77,6.77,0,0,0-.329-3.849Z" transform="translate(-206.035 -21.603)" fill="#e76a47"/>
      <rect id="Rectangle_33" data-name="Rectangle 33" width="8.523" height="4.53" transform="translate(59.466 10.921)" fill="#e76a47"/>
    </g>
  </g>
</svg>
