<svg xmlns="http://www.w3.org/2000/svg" xmlns:xlink="http://www.w3.org/1999/xlink" width="388.638" height="40.366" viewBox="0 0 388.638 40.366">
  <defs>
    <clipPath id="clip-path">
      <rect id="Rectangle_61" data-name="Rectangle 61" width="388.638" height="40.366" fill="none"/>
    </clipPath>
  </defs>
  <g id="Group_296" data-name="Group 296" transform="translate(-388 404)">
    <g id="Group_296-2" data-name="Group 296" transform="translate(388 -404)" clip-path="url(#clip-path)">
      <path id="Path_131" data-name="Path 131" d="M245.25,38.656a1.272,1.272,0,0,1,.546.7q.282.655.557,1.313.218.523.43,1.047a9.675,9.675,0,0,0,.392.954c.2.379.3.8.507,1.174a7.391,7.391,0,0,1,.376.908c.152.381.3.763.453,1.144.072.182.072.182.364.415a.9.9,0,0,0,.142-.18,5.911,5.911,0,0,0,.261-.637c.176-.549.432-1.063.651-1.593.271-.651.514-1.314.772-1.97a7.789,7.789,0,0,1,.309-.724c.2-.395.314-.826.522-1.22a9.252,9.252,0,0,0,.353-.865c.024-.061.055-.12.084-.178a.471.471,0,0,1,.472-.292c.148,0,.3,0,.445,0,.33,0,.659,0,.989,0,.244,0,.244.009.549.234.006.111.021.241.021.37q0,4.614,0,9.226c0,.05,0,.1,0,.148-.012.322-.134.462-.441.471-.379.01-.758,0-1.137,0a.92.92,0,0,1-.2-.05.867.867,0,0,1-.087-.222c-.015-.146-.008-.3-.008-.444q0-3.133.006-6.266a2.724,2.724,0,0,0-.032-.44c-.008-.049-.073-.089-.11-.131-.05.034-.089.047-.1.072-.122.269-.255.534-.352.812-.08.233-.211.447-.278.679a5.562,5.562,0,0,1-.253.639c-.161.377-.3.761-.459,1.141-.272.669-.549,1.335-.82,2-.166.41-.333.821-.482,1.237a.648.648,0,0,1-.668.476c-.248,0-.495,0-.742,0a.748.748,0,0,1-.5-.193c-.225-.544-.471-1.133-.714-1.725-.087-.212-.164-.429-.251-.641-.187-.455-.382-.907-.567-1.364q-.386-.958-.761-1.921c-.125-.321-.233-.649-.358-.97a.63.63,0,0,0-.133-.161c-.155.009-.213.085-.225.192a3.69,3.69,0,0,0-.014.393q0,3.133.006,6.266c0,.146-.008.292-.012.414a.484.484,0,0,1-.409.2c-.28,0-.56,0-.84,0a.416.416,0,0,1-.422-.444c.007-.082,0-.164,0-.247V39.391c0-.066,0-.132,0-.2.018-.374.171-.529.558-.535.544-.009,1.087,0,1.612,0" transform="translate(-73.003 -11.609)" fill="#003a96"/>
      <path id="Path_132" data-name="Path 132" d="M386.153,43.35a.2.2,0,0,0,.08.281,2.752,2.752,0,0,0,.312.145,2.232,2.232,0,0,1,1.371,1.561,3.264,3.264,0,0,1-.1,1.886,1.632,1.632,0,0,1-.283.512,3.286,3.286,0,0,1-1.479,1.1,5.218,5.218,0,0,1-1.639.274h-3.41c-.066,0-.132,0-.2,0a.387.387,0,0,1-.414-.394c-.007-.1,0-.2,0-.3V39.3a2.765,2.765,0,0,1,.006-.3.379.379,0,0,1,.358-.344c.082-.008.164,0,.247,0,1.07,0,2.141-.008,3.211.006a6.815,6.815,0,0,1,1.175.108,2.681,2.681,0,0,1,1.686,1.117,1.2,1.2,0,0,1,.139.313,2.957,2.957,0,0,1,.19,1.255,2.126,2.126,0,0,1-1.023,1.755c-.083.05-.164.1-.228.141m-3.7,4.37c.1.008.2.024.295.024.493,0,.987-.013,1.481,0a2,2,0,0,0,1.078-.3,1.3,1.3,0,0,0,.671-.811,2.394,2.394,0,0,0,.013-1.075,1.173,1.173,0,0,0-.49-.712,2.622,2.622,0,0,0-1.383-.455c-.426-.031-.856,0-1.284-.01a.494.494,0,0,0-.562.533q0,1.183,0,2.366a.572.572,0,0,0,.181.444m.055-4.746a6.941,6.941,0,0,0,1.9-.094,1.276,1.276,0,0,0,.917-.757,1.674,1.674,0,0,0,.048-1.108,1,1,0,0,0-.16-.355,1.483,1.483,0,0,0-1.177-.628q-.668-.016-1.334,0a.382.382,0,0,0-.428.428c-.007.674,0,1.348,0,2.022a.652.652,0,0,0,.234.5" transform="translate(-114.242 -11.608)" fill="#003a96"/>
      <path id="Path_133" data-name="Path 133" d="M448.142,44.176a1.867,1.867,0,0,0-.911-.251,1.345,1.345,0,0,0-1.215.856,2.266,2.266,0,0,0-.134.772c.006,1.315,0,2.631,0,3.948,0,.115.006.23,0,.345a.38.38,0,0,1-.361.4c-.379.013-.758.013-1.137,0a.379.379,0,0,1-.367-.39c-.006-.082,0-.164,0-.246q0-3.183,0-6.366c0-.146.011-.292.017-.431.341-.4.781-.194,1.15-.25a.73.73,0,0,1,.415.6.383.383,0,0,0,.278.337,1.478,1.478,0,0,0,.189-.206,1.828,1.828,0,0,1,1.491-.831,5.835,5.835,0,0,1,.938,0,2.29,2.29,0,0,1,1.212.509,1.641,1.641,0,0,1,.276.341c.059.079.1.169.164.244a.219.219,0,0,0,.311.015,1.053,1.053,0,0,0,.157-.188,1.946,1.946,0,0,1,1.743-.933c.165,0,.33,0,.495,0a2.322,2.322,0,0,1,2.139,1.608,1.862,1.862,0,0,1,.1.628c0,.856.006,1.711.008,2.566q0,1.184,0,2.368a3.5,3.5,0,0,1-.016.393.24.24,0,0,1-.23.22c-.428.008-.857.013-1.285,0a.363.363,0,0,1-.344-.358c-.011-.131,0-.263,0-.395q0-1.85,0-3.7c0-.23,0-.46-.01-.691a1.238,1.238,0,0,0-1.094-1.154,1.387,1.387,0,0,0-1,.208,1.241,1.241,0,0,0-.577.931,5.183,5.183,0,0,0-.013.542q0,1.949,0,3.9c0,.115.006.231,0,.346a.373.373,0,0,1-.378.378c-.428.008-.856,0-1.285-.009a.426.426,0,0,1-.115-.047.735.735,0,0,1-.092-.2,2.013,2.013,0,0,1-.013-.344c0-1.333-.013-2.665.008-4a1.975,1.975,0,0,0-.517-1.47" transform="translate(-133.35 -12.746)" fill="#003a96"/>
      <path id="Path_134" data-name="Path 134" d="M407.555,49.546c-.031-.345-.371-.483-.523-.748a1.454,1.454,0,0,1,.035-1.176,5.423,5.423,0,0,1,.439-.421,3.092,3.092,0,0,0,.566-.419,1.349,1.349,0,0,0-.131-.2,2.512,2.512,0,0,0-.25-.238,2.28,2.28,0,0,1-.686-1.434,1.622,1.622,0,0,1,.109-.824,2.374,2.374,0,0,1,1.227-1.413,3.134,3.134,0,0,1,1.518-.36c.3.009.593,0,.89.006a2.387,2.387,0,0,1,1.139.28c.143.078.3.137.431.2.206-.068.3-.234.432-.353a2.005,2.005,0,0,1,.377-.313,1.393,1.393,0,0,1,1.054-.052c.028.008.048.043.085.076a4.381,4.381,0,0,1,.023,1.019.247.247,0,0,1-.228.224c-.1.013-.2.012-.3.015-.082,0-.166,0-.248,0a.372.372,0,0,0-.347.553,1.925,1.925,0,0,1,.16.811,2.1,2.1,0,0,1-.991,1.874,2.768,2.768,0,0,1-1.418.515c-.129.008-.257.057-.388.065a2.864,2.864,0,0,1-.884-.028,2.042,2.042,0,0,0-.293-.04.479.479,0,0,0-.485.271.5.5,0,0,0,.3.785,2.037,2.037,0,0,0,.725.123c.594-.013,1.188,0,1.781-.006a3.458,3.458,0,0,1,1.066.168,1.788,1.788,0,0,1,1.364,1.823,3.063,3.063,0,0,1-.039.539,2.112,2.112,0,0,1-.938,1.387,3.165,3.165,0,0,1-.941.423,2.444,2.444,0,0,0-.79.256.549.549,0,0,1-.287.045q-1.162.005-2.325,0a.5.5,0,0,1-.285-.05,1.282,1.282,0,0,0-.6-.213,2.209,2.209,0,0,1-1.056-.6,1.469,1.469,0,0,1-.431-.815,1,1,0,0,1,.09-.719c.055-.1.1-.208.155-.309a.957.957,0,0,1,.54-.476c.137-.043.29-.084.352-.251m.76,1.749a2.311,2.311,0,0,0,1.364.4c.281,0,.562-.014.841,0a2.815,2.815,0,0,0,1.145-.264.888.888,0,0,0,.467-.421.665.665,0,0,0-.259-.972,1.472,1.472,0,0,0-.7-.213c-.742-.006-1.484-.009-2.226,0a.742.742,0,0,0-.721.5c-.055.135-.087.28-.129.418.077.193.15.375.219.551m2.508-5.469c.057-.048.131-.113.207-.173a1.152,1.152,0,0,0,.414-1.14,1.116,1.116,0,0,0-.864-.9,1.4,1.4,0,0,0-1.52.544c-.027.041-.05.084-.085.145v.866a1.336,1.336,0,0,0,.64.669,2.022,2.022,0,0,0,1.208-.012" transform="translate(-122.05 -12.614)" fill="#003a96"/>
      <path id="Path_135" data-name="Path 135" d="M303.082,44.786a3.849,3.849,0,0,1-.026-1.016.245.245,0,0,1,.227-.224,1.919,1.919,0,0,1,.246-.013c.89,0,1.78.012,2.669-.006.445-.009.6.187.6.577-.015,1.332-.006,2.664-.006,4,0,.049,0,.1,0,.148a.494.494,0,0,1-.383.509,9.2,9.2,0,0,1-1.436.33,12.184,12.184,0,0,1-2.068.072,5.456,5.456,0,0,1-2.367-.6,4.594,4.594,0,0,1-1.479-1.285,3.106,3.106,0,0,1-.529-.995,4.016,4.016,0,0,1-.279-.94c-.01-.179-.041-.358-.062-.536s-.05-.357-.058-.536c-.009-.229-.006-.458,0-.686.006-.147.055-.293.05-.438a4.252,4.252,0,0,1,.4-1.763,3.966,3.966,0,0,1,1.035-1.483,5.319,5.319,0,0,1,1.444-.922,8.315,8.315,0,0,1,3.539-.46,5.434,5.434,0,0,1,.73.108c.178.028.355.062.535.079a.746.746,0,0,1,.515.25,7.724,7.724,0,0,1,.021,1.224.531.531,0,0,1-.581.048,3.538,3.538,0,0,0-1.3-.25c-.18-.007-.359-.035-.538-.054a.624.624,0,0,0-.146-.018,5.452,5.452,0,0,0-2.006.438A2.928,2.928,0,0,0,300.5,41.8c-.013.03-.017.064-.031.093a3.431,3.431,0,0,0-.309,1.725c.013.312-.014.627.014.937a3.444,3.444,0,0,0,1.522,2.736,2.9,2.9,0,0,0,1.238.46,4.129,4.129,0,0,0,1.619-.065.42.42,0,0,0,.369-.452c.008-.624,0-1.25,0-1.874a.433.433,0,0,0-.431-.44c-.346.007-.692,0-1.038,0-.15,0-.15,0-.372-.132" transform="translate(-89.534 -11.559)" fill="#003a96"/>
      <path id="Path_136" data-name="Path 136" d="M424.642,48.893a1.177,1.177,0,0,1-.1-.263,2.838,2.838,0,0,1-.007-.394c0-1.333,0-2.666,0-4a2.291,2.291,0,0,0-.035-.49,1.527,1.527,0,0,0-2.573-.658,1.27,1.27,0,0,0-.351.791c-.013.18-.008.362-.008.542,0,1.3-.009,2.6.007,3.9,0,.41-.1.646-.6.62-.28-.015-.56-.01-.841,0a.407.407,0,0,1-.438-.425c.006-.1,0-.2,0-.3q0-4.739,0-9.477a2.773,2.773,0,0,1,0-.3.372.372,0,0,1,.349-.354c.379-.013.758-.014,1.137,0a.388.388,0,0,1,.38.381c.009.115,0,.23,0,.346q0,1.333,0,2.665c0,.129.018.257.025.359a.191.191,0,0,0,.29.017,2.17,2.17,0,0,0,.175-.174,1.571,1.571,0,0,1,1.035-.518,4.269,4.269,0,0,1,1.522.066A2.154,2.154,0,0,1,426.2,42.7a4.346,4.346,0,0,1,.214,1.355c-.008,1.415,0,2.83,0,4.245a2.773,2.773,0,0,1-.008.3.383.383,0,0,1-.317.332.879.879,0,0,1-.148.011c-.363,0-.726,0-1.089,0a1.2,1.2,0,0,1-.211-.042" transform="translate(-126.045 -11.437)" fill="#003a96"/>
      <path id="Path_137" data-name="Path 137" d="M265.9,44.2a2.186,2.186,0,0,0-1.769-.285c-.319.076-.643.132-.964.2a.943.943,0,0,1-.6-.025,4.49,4.49,0,0,1-.024-1.044.484.484,0,0,1,.305-.276,4.922,4.922,0,0,1,.763-.194,13.866,13.866,0,0,1,1.524-.094,4.562,4.562,0,0,1,1.594.271A1.828,1.828,0,0,1,268,44.137a5.714,5.714,0,0,1,.17,1.312c-.012.838,0,1.677,0,2.516,0,.132,0,.263,0,.395a.575.575,0,0,0,.528.607c.111.022.226.027.344.04.041.061.1.111.109.167a2.616,2.616,0,0,1-.022.958c-.041.038-.062.073-.09.08a2.4,2.4,0,0,1-1.308.085.164.164,0,0,0-.048-.012,1.21,1.21,0,0,1-1.066-.76.948.948,0,0,0-.078-.109c-.143-.074-.229,0-.313.086a4.014,4.014,0,0,1-.365.4,2.31,2.31,0,0,1-1.186.443,2.9,2.9,0,0,1-1.86-.334,2.063,2.063,0,0,1-.984-1.407,2.285,2.285,0,0,1,0-1.07,2.14,2.14,0,0,1,1.213-1.464,6,6,0,0,1,.6-.236,2.118,2.118,0,0,1,.381-.1,9.793,9.793,0,0,1,1.77-.109,3.874,3.874,0,0,0,.394-.027A1.208,1.208,0,0,0,265.9,44.2m.292,2.662a3.26,3.26,0,0,0-1.7.1,1.054,1.054,0,0,0-.777,1.155.991.991,0,0,0,.72.838,1.394,1.394,0,0,0,1.281-.332,1.812,1.812,0,0,0,.563-1.6.5.5,0,0,0-.083-.158" transform="translate(-78.617 -12.759)" fill="#003a96"/>
      <path id="Path_138" data-name="Path 138" d="M435.735,45.586c.034-.03.051-.039.057-.052a1.079,1.079,0,0,0-.118-1.156,1.149,1.149,0,0,0-.556-.388,2.428,2.428,0,0,0-1.406-.073c-.415.1-.834.181-1.271.275l-.2-.113a5.041,5.041,0,0,1-.008-1.091.551.551,0,0,1,.086-.174,4.612,4.612,0,0,1,1.452-.274c.327.01.65-.107.982-.07a6.965,6.965,0,0,1,1.646.274,1.934,1.934,0,0,1,1.257,1.349,2.493,2.493,0,0,1,.106.728c0,1.052,0,2.105,0,3.158,0,.18.007.36.011.553l.376.4a3.77,3.77,0,0,1,.392.056.344.344,0,0,1,.281.308,3.769,3.769,0,0,1,0,.64.345.345,0,0,1-.279.311,2.091,2.091,0,0,1-1.119.05.576.576,0,0,0-.146-.028,1.109,1.109,0,0,1-.881-.561.788.788,0,0,0-.33-.335c-.062.031-.181.049-.222.115a2.073,2.073,0,0,1-1.737.867,3.416,3.416,0,0,1-1.173-.122,1.9,1.9,0,0,1-.521-.271,2.233,2.233,0,0,1-.931-2.41,2.1,2.1,0,0,1,1.237-1.5,3.913,3.913,0,0,1,1.223-.355,11.149,11.149,0,0,1,1.526-.081,2.164,2.164,0,0,0,.266-.031m-.585,1.223a2.335,2.335,0,0,0-1.191.218,1.186,1.186,0,0,0-.645.971,1.145,1.145,0,0,0,.749.947,1.524,1.524,0,0,0,1.466-.474,1.848,1.848,0,0,0,.344-1.437.248.248,0,0,0-.227-.223c-.163-.011-.327,0-.5,0" transform="translate(-129.569 -12.753)" fill="#003a96"/>
      <path id="Path_139" data-name="Path 139" d="M363.244,48.932c.223.074.446-.029.616.181a2.485,2.485,0,0,1-.018,1.05,2.718,2.718,0,0,1-1.737.071,1.223,1.223,0,0,1-.619-.469c-.063-.074-.1-.17-.164-.246a1.614,1.614,0,0,0-.2-.167c-.1.089-.185.162-.267.237-.121.111-.237.227-.361.335a2.028,2.028,0,0,1-1.14.414,2.909,2.909,0,0,1-1.505-.176,1.989,1.989,0,0,1-1.14-1.09,3.151,3.151,0,0,1-.244-.994,2.238,2.238,0,0,1,.372-1.256,1.928,1.928,0,0,1,.9-.749c.221-.106.456-.183.688-.268a1.172,1.172,0,0,1,.284-.077,9.563,9.563,0,0,1,1.522-.118,3.549,3.549,0,0,0,.4,0,.372.372,0,0,0,.386-.369,1.267,1.267,0,0,0-.721-1.235,2.413,2.413,0,0,0-1.257-.143c-.372.051-.739.148-1.107.232a1.036,1.036,0,0,1-.607,0,.89.89,0,0,1-.058-.217c-.008-.278,0-.558,0-.8a.5.5,0,0,1,.334-.325,3.669,3.669,0,0,1,1.01-.2c.395,0,.781-.122,1.179-.084a6.211,6.211,0,0,1,1.692.285,1.863,1.863,0,0,1,1.179,1.169,2.738,2.738,0,0,1,.165.914c0,1,0,2.006,0,3.009,0,.115-.006.231,0,.345a.913.913,0,0,0,.421.743m-2.373-2.119a3.834,3.834,0,0,0-1.739.169,1.191,1.191,0,0,0-.332.2,1.132,1.132,0,0,0-.422.778c.036.149.077.323.115.488.054.059.1.111.141.157a1.219,1.219,0,0,0,1.441.255A1.755,1.755,0,0,0,361,47.1c0-.088-.076-.175-.13-.292" transform="translate(-107.057 -12.752)" fill="#003a96"/>
      <path id="Path_140" data-name="Path 140" d="M343.437,48.726c.177.339.035.7.093,1.055l-.283.311a7.081,7.081,0,0,1-1.108.182,7.18,7.18,0,0,1-1.427.069,4.238,4.238,0,0,1-1.948-.46,2.813,2.813,0,0,1-1.049-.943,5.124,5.124,0,0,1-.58-1.508,1.549,1.549,0,0,1-.034-.342c-.007-.213.006-.428-.01-.641a4.575,4.575,0,0,1,.292-1.834,3.039,3.039,0,0,1,1.375-1.738,2.718,2.718,0,0,1,1.5-.434c.345.02.7-.026,1.037.017a2.679,2.679,0,0,1,2.259,1.6,3.887,3.887,0,0,1,.3,1.182c.05.41.045.818.072,1.227.021.325-.161.53-.546.525-1.236-.017-2.473-.007-3.708-.007-.132,0-.264,0-.4.006a.273.273,0,0,0-.282.327,1.92,1.92,0,0,0,.845,1.335,1.838,1.838,0,0,0,1.117.327,6.428,6.428,0,0,0,1.423-.11c.141-.04.284-.078.421-.13a.759.759,0,0,1,.634-.013m-4.237-3.06a1.094,1.094,0,0,0,.188.033q1.088.005,2.177,0a.868.868,0,0,0,.148-.01.378.378,0,0,0,.319-.427c-.042-.242-.106-.48-.159-.72a.838.838,0,0,0-.188-.34,1.142,1.142,0,0,0-1.077-.476c-.1.011-.2,0-.3.008a1.432,1.432,0,0,0-.974.679,3.543,3.543,0,0,0-.219.549c-.062.233-.134.482.083.7" transform="translate(-101.235 -12.746)" fill="#003a96"/>
      <path id="Path_141" data-name="Path 141" d="M319.614,46.776a.542.542,0,0,1-.4.2c-.115,0-.231,0-.346,0H315.46c-.115,0-.231,0-.346,0a.427.427,0,0,0-.435.288c.066.208.127.43.206.644a1.5,1.5,0,0,0,.637.731,1.894,1.894,0,0,0,1.07.326,6.067,6.067,0,0,0,1.471-.1,3.333,3.333,0,0,0,.421-.129.745.745,0,0,1,.593-.023,1.222,1.222,0,0,1,.045.232c0,.262.009.526,0,.789a.407.407,0,0,1-.361.406c-.307.049-.623.057-.926.123a6.557,6.557,0,0,1-1.475.078,4.1,4.1,0,0,1-1.942-.48,2.467,2.467,0,0,1-1.162-1.222.65.65,0,0,0-.041-.09,3.9,3.9,0,0,1-.427-1.792,6.009,6.009,0,0,1,.194-1.851,3.237,3.237,0,0,1,.872-1.575,3.009,3.009,0,0,1,2.028-.884,8.025,8.025,0,0,1,.988,0,2.741,2.741,0,0,1,2.234,1.327,3.59,3.59,0,0,1,.421,1.292,9.869,9.869,0,0,1,.092,1.707m-4.846-1.262a.637.637,0,0,0,.537.188c.462,0,.923,0,1.384,0h.593a.483.483,0,0,0,.445-.221A1.807,1.807,0,0,0,317.159,44a1.526,1.526,0,0,0-1.62-.094,1.757,1.757,0,0,0-.771,1.613" transform="translate(-93.934 -12.744)" fill="#003a96"/>
      <path id="Path_142" data-name="Path 142" d="M326.867,50.2a1.026,1.026,0,0,1-.2.045c-.379,0-.758,0-1.138.006a.413.413,0,0,1-.435-.43c.006-.082,0-.164,0-.246q0-3.183,0-6.365c0-.146.014-.292.019-.393a.479.479,0,0,1,.362-.236,5.4,5.4,0,0,1,.789,0,.418.418,0,0,1,.38.339c.025.094.017.2.045.291a2.792,2.792,0,0,0,.139.313.675.675,0,0,0,.434-.334,1.829,1.829,0,0,1,.925-.624,2.3,2.3,0,0,1,.579-.1,6.167,6.167,0,0,1,.692,0,2.349,2.349,0,0,1,1.96,1.054,2.175,2.175,0,0,1,.393,1.152c0,.2.007.395.008.592q0,2.2,0,4.391a2.247,2.247,0,0,1-.012.344.833.833,0,0,1-.094.207.686.686,0,0,1-.16.046c-.4.006-.791,0-1.187.009a.412.412,0,0,1-.427-.437c.008-.115,0-.23,0-.345q0-2.073,0-4.145a1.44,1.44,0,0,0-.218-.791,1.24,1.24,0,0,0-.927-.581,1.983,1.983,0,0,0-.686.022,1.4,1.4,0,0,0-1.132,1.369,4.458,4.458,0,0,0-.01.493q0,1.874,0,3.75a3.073,3.073,0,0,1-.01.394.883.883,0,0,1-.092.22" transform="translate(-97.634 -12.748)" fill="#003a96"/>
      <path id="Path_143" data-name="Path 143" d="M278.878,43v.949l-.071.136c-.05.023-.08.05-.109.048a3.791,3.791,0,0,1-.536-.042c-.274-.053-.542-.134-.814-.2a1.591,1.591,0,0,0-1.061.1,1.444,1.444,0,0,0-.363.249.4.4,0,0,0-.082.535.741.741,0,0,0,.334.351q.375.19.754.37c.342.162.691.309,1.028.482a2.236,2.236,0,0,1,1.208,1.481,2.068,2.068,0,0,1-.471,2.018,2.658,2.658,0,0,1-1.6.8,6.035,6.035,0,0,1-1.278.078c-.41-.02-.82-.062-1.226-.122a.829.829,0,0,1-.674-.434,4.9,4.9,0,0,1-.011-.987.407.407,0,0,1,.071-.152.493.493,0,0,1,.406-.052,1.75,1.75,0,0,1,.33.1,3.9,3.9,0,0,0,1.492.269,1.185,1.185,0,0,0,1.115-.536.691.691,0,0,0-.251-.777,2.336,2.336,0,0,0-.439-.316c-.232-.122-.481-.213-.721-.321a8.449,8.449,0,0,1-.851-.392,2.271,2.271,0,0,1-1.136-1.485,1.6,1.6,0,0,1,.022-.829c.029-.094.066-.186.092-.281a1.94,1.94,0,0,1,1.23-1.26,4.02,4.02,0,0,1,1.835-.3,4.91,4.91,0,0,1,1.361.195c.211.074.387.188.412.323" transform="translate(-82.254 -12.756)" fill="#003a96"/>
      <path id="Path_144" data-name="Path 144" d="M283.11,49.614a1.066,1.066,0,0,0,0-.723c.219-.319.276-.353.566-.258a5.551,5.551,0,0,0,1.14.3,5.03,5.03,0,0,0,.984.023,1.008,1.008,0,0,0,.754-.462v-.528a1.923,1.923,0,0,0-.868-.691,11.2,11.2,0,0,1-1.293-.59,2.02,2.02,0,0,1-1.154-1.341,2.088,2.088,0,0,1,.348-1.868,1.92,1.92,0,0,1,.544-.487,2.977,2.977,0,0,1,1.292-.443c.262-.011.523-.078.783-.071.409.012.819.052,1.226.1.325.042.433.129.709.463,0,.229,0,.49,0,.753a.408.408,0,0,1-.259.405c-.413-.1-.847-.181-1.271-.3a1.624,1.624,0,0,0-1.361.246.642.642,0,0,0-.25.377,1.143,1.143,0,0,0,.7.758c.34.162.7.287,1.041.446a3.875,3.875,0,0,1,1.036.652,2.078,2.078,0,0,1,.679,1.578,2.537,2.537,0,0,1-.188,1.056,1.664,1.664,0,0,1-.541.691,2.583,2.583,0,0,1-1.013.488,6.007,6.007,0,0,1-2.346.087,4.906,4.906,0,0,1-.776-.129.663.663,0,0,1-.48-.542" transform="translate(-85.025 -12.758)" fill="#003a96"/>
      <path id="Path_145" data-name="Path 145" d="M370.692,38.1a.65.65,0,0,1,.24.483c0,.1,0,.2,0,.3q0,4.681,0,9.361c0,.115,0,.231-.006.345a.365.365,0,0,1-.35.351c-.378.011-.757.012-1.135,0a.382.382,0,0,1-.376-.381c-.008-.1,0-.2,0-.3q0-4.755,0-9.509c0-.083,0-.164,0-.246a.4.4,0,0,1,.4-.411c.41-.01.821-.02,1.224.008" transform="translate(-110.84 -11.436)" fill="#003a96"/>
      <path id="Path_146" data-name="Path 146" d="M349.688,42.58c.232,0,.479-.011.725,0a.579.579,0,0,1,.562.471c.038.142.051.29.093.431a.191.191,0,0,0,.251.148c.071-.094.165-.2.243-.327a1.492,1.492,0,0,1,.674-.549,4.317,4.317,0,0,1,1.1-.246.348.348,0,0,1,.376.255,1.131,1.131,0,0,1,.043.29c.006.23.007.461,0,.691-.008.4-.171.537-.559.455a1.668,1.668,0,0,0-1.493.46,1.5,1.5,0,0,0-.4,1.03,2.465,2.465,0,0,0,0,.345q0,1.8,0,3.6c0,.147-.008.294-.011.416a.481.481,0,0,1-.406.207c-.346,0-.693.01-1.039,0a.381.381,0,0,1-.417-.39c-.006-.082,0-.165,0-.247q0-3.159,0-6.319a.8.8,0,0,1,.262-.73" transform="translate(-104.942 -12.766)" fill="#003a96"/>
      <path id="Path_147" data-name="Path 147" d="M393.684,42.86a.572.572,0,0,1,.456-.257,5.417,5.417,0,0,1,.544,0,.452.452,0,0,1,.441.334c.055.172.094.348.143.522a.247.247,0,0,0,.313.195c.055-.088.113-.185.176-.278a1.583,1.583,0,0,1,.707-.588,2.382,2.382,0,0,1,1.373-.179.652.652,0,0,1,.163.616,1.809,1.809,0,0,0,0,.484.491.491,0,0,1-.262.547,1.5,1.5,0,0,1-.188-.029,1.852,1.852,0,0,0-1.157.123,1.284,1.284,0,0,0-.841,1.171,3.613,3.613,0,0,0-.007.444q0,1.8,0,3.6c0,.115.006.231,0,.346a.383.383,0,0,1-.387.372q-.544.017-1.088,0a.387.387,0,0,1-.4-.414c-.006-.1,0-.2,0-.3q0-3.134,0-6.268c0-.162.012-.325.016-.446" transform="translate(-118.229 -12.786)" fill="#003a96"/>
      <path id="Path_148" data-name="Path 148" d="M401.788,42.815a.553.553,0,0,1,.43-.2c.3-.008.592-.007.888,0,.163,0,.163.012.443.19a.8.8,0,0,1,.065.476q0,2.857,0,5.714c0,.3,0,.591,0,.886,0,.08-.015.161-.021.227a.479.479,0,0,1-.4.19c-.346,0-.691,0-1.036,0a.41.41,0,0,1-.418-.444c.006-.082,0-.164,0-.246q0-3.152,0-6.3a1.024,1.024,0,0,1,.052-.488" transform="translate(-120.651 -12.797)" fill="#003a96"/>
      <path id="Path_149" data-name="Path 149" d="M402.615,37.963c.1.03.2.057.293.085a1.116,1.116,0,0,1,.8,1.014.888.888,0,0,1-.266.764,1.108,1.108,0,1,1-1.057-1.807c.031-.008.061-.022.093-.03s.064-.013.136-.027" transform="translate(-120.576 -11.401)" fill="#003a96"/>
      <path id="Path_150" data-name="Path 150" d="M160.365,41.655c-.178-.026-.231.086-.274.19-.106.258-.2.522-.3.781-.22.548-.444,1.095-.666,1.642-.086.213-.176.425-.26.639-.174.443-.342.888-.516,1.331-.12.3-.246.606-.369.909s-.234.578-.351.868a1,1,0,0,1-.491.6c-.3,0-.642.014-.986,0a.664.664,0,0,1-.61-.431c-.082-.2-.163-.395-.241-.593-.174-.443-.341-.889-.516-1.331-.1-.243-.2-.482-.3-.723-.262-.637-.527-1.272-.783-1.911-.171-.427-.323-.861-.493-1.288a6.72,6.72,0,0,0-.29-.624c-.034-.065-.112-.107-.2-.187a.829.829,0,0,0-.106.244c-.008.246,0,.493.008.739.011.229.055.457.055.685.006,1.727,0,3.455,0,5.182a.805.805,0,0,1-.189.684,3.942,3.942,0,0,1-1.389,0,.826.826,0,0,1-.09-.205A2.263,2.263,0,0,1,151,48.5q0-4.64,0-9.279c0-.13.013-.26.019-.365a.48.48,0,0,1,.411-.2c.511,0,1.022-.01,1.533,0,.354.01.511.164.628.51.1.279.211.551.327.822.246.574.5,1.143.746,1.717.168.393.325.789.489,1.183.158.379.32.756.479,1.134s.318.754.474,1.132c.131.319.249.643.388.958.035.08.129.134.192.2a.768.768,0,0,0,.354-.483c.313-.777.628-1.552.938-2.329.158-.4.308-.8.466-1.192.1-.26.217-.514.325-.772.267-.636.536-1.271.8-1.908.075-.183.127-.374.195-.558a.576.576,0,0,1,.56-.41c.528-.011,1.055-.01,1.583,0a.377.377,0,0,1,.388.369c.008.081,0,.164,0,.246V48.5a2.087,2.087,0,0,1-.013.344.806.806,0,0,1-.1.206.683.683,0,0,1-.16.047c-.4,0-.791,0-1.187.006a.413.413,0,0,1-.425-.441c.006-.066,0-.132,0-.2q0-2.764,0-5.528a5.479,5.479,0,0,1,.055-.685,1.493,1.493,0,0,0-.109-.6" transform="translate(-45.349 -11.608)" fill="#003a96"/>
      <path id="Path_151" data-name="Path 151" d="M188.628,50.151a.565.565,0,0,1-.2.083c-.411.011-.824.017-1.236.008a.37.37,0,0,1-.371-.383c-.008-.115,0-.23,0-.345q0-2.023,0-4.047v-.613l-.223-.367a1.317,1.317,0,0,0-1.388-.533,1.293,1.293,0,0,0-.8.456,1.511,1.511,0,0,0-.254.636,5.105,5.105,0,0,0-.114,1.024c.013,1.168.006,2.336.006,3.5,0,.163,0,.326-.006.454a.484.484,0,0,1-.414.217c-.346,0-.692.007-1.038,0-.233-.006-.321-.1-.336-.335-.006-.083,0-.164,0-.247q0-3.207,0-6.415a2.969,2.969,0,0,1,.011-.344.332.332,0,0,1,.27-.317,1.86,1.86,0,0,1,.973.048.448.448,0,0,1,.078.052c.221.233.221.574.365.807a.25.25,0,0,0,.286-.141,1.7,1.7,0,0,1,.8-.7,2.455,2.455,0,0,1,.47-.141,3.621,3.621,0,0,1,1.709.066,1.851,1.851,0,0,1,.939.692c.029.039.046.087.076.127.24.329.4.32.6-.049a1.277,1.277,0,0,1,.549-.548,2.265,2.265,0,0,1,.526-.259,3.087,3.087,0,0,1,2.465.352,1.855,1.855,0,0,1,.621.687,3.042,3.042,0,0,1,.336,1.324c.008.362.006.723.006,1.085,0,1.217-.009,2.435.007,3.652.006.433-.12.648-.6.615-.262-.018-.527,0-.791,0a.547.547,0,0,1-.454-.173,1.368,1.368,0,0,1-.036-.527c0-1.315,0-2.631,0-3.948a3.61,3.61,0,0,0-.1-.828.948.948,0,0,0-.5-.644,1.422,1.422,0,0,0-1.236-.1,1.224,1.224,0,0,0-.851.991,5.321,5.321,0,0,0-.075.881q0,1.875,0,3.75a.874.874,0,0,1-.076.507" transform="translate(-54.736 -12.744)" fill="#003a96"/>
      <path id="Path_152" data-name="Path 152" d="M133.777,46.753c-.165-.165-.285-.3-.421-.416a2.38,2.38,0,0,1-.565-.914.808.808,0,0,1-.044-.29c-.006-.164,0-.329,0-.493A2.123,2.123,0,0,1,133.96,42.7a3.021,3.021,0,0,1,1.609-.39c.264.009.528,0,.791,0a2.541,2.541,0,0,1,1.234.3c.129.07.266.126.384.181a.686.686,0,0,0,.4-.306,1.328,1.328,0,0,1,1.406-.444.443.443,0,0,1,.183.354c.006.213.01.427,0,.641a.389.389,0,0,1-.386.372c-.115.008-.231,0-.346,0a.416.416,0,0,0-.428.308c.02.071.045.165.073.257.057.188.123.373.172.563a.741.741,0,0,1,.024.292,2.617,2.617,0,0,1-.48,1.275,2.561,2.561,0,0,1-1.172.868,4.029,4.029,0,0,1-2.077.211,1.488,1.488,0,0,0-.344-.016.512.512,0,0,0-.391.184.5.5,0,0,0,.225.864,1.781,1.781,0,0,0,.724.125c.577-.01,1.154.006,1.73-.006a4.364,4.364,0,0,1,1.071.146,2.173,2.173,0,0,1,.9.491,1.526,1.526,0,0,1,.49.946,2.829,2.829,0,0,1,0,.98,2.058,2.058,0,0,1-1.086,1.451,3.6,3.6,0,0,1-.966.365,1.25,1.25,0,0,0-.6.2.47.47,0,0,1-.283.059c-.856,0-1.713,0-2.561,0a1.855,1.855,0,0,0-.738-.3,1.84,1.84,0,0,1-1.136-.732,1.3,1.3,0,0,1,.016-1.722,1.462,1.462,0,0,1,.612-.486.948.948,0,0,0,.182-.111.264.264,0,0,0-.036-.344c-.088-.1-.185-.188-.276-.282a.786.786,0,0,1-.225-.532c0-.083,0-.165,0-.246a1.1,1.1,0,0,1,.63-1.083c.084-.052.181-.085.259-.143a2.42,2.42,0,0,0,.241-.249m4.093,4.206a.856.856,0,0,0-.14-.824c-.134-.068-.276-.153-.427-.213a1.1,1.1,0,0,0-.377-.09q-1.158-.015-2.315-.007a.721.721,0,0,0-.694.462c-.059.134-.1.276-.142.4a1.014,1.014,0,0,0,.772.878,2.33,2.33,0,0,0,.77.136c.263-.008.525-.007.789,0a3.115,3.115,0,0,0,.917-.15,1.383,1.383,0,0,0,.848-.591m-1.439-5.1a1.148,1.148,0,0,0,.693-1.188A1.073,1.073,0,0,0,136.06,43.6c-.148,0-.3-.006-.444,0a1.055,1.055,0,0,0-.984.987c-.009.211.011.423.017.635.11.12.2.233.309.336s.218.2.325.293a4.71,4.71,0,0,0,1.149,0" transform="translate(-39.662 -12.615)" fill="#003a96"/>
      <path id="Path_153" data-name="Path 153" d="M106.62,41.876a.708.708,0,0,0,.06-.432c0-.889,0-1.776,0-2.665,0-.1,0-.2,0-.3a.387.387,0,0,1,.369-.39c.379-.013.758-.012,1.138,0a.374.374,0,0,1,.358.346,2.593,2.593,0,0,1,.007.3q0,4.788,0,9.575c0,.611-.048.645-.639.633-.132,0-.264,0-.4,0a.489.489,0,0,1-.544-.458c-.02-.1-.026-.2-.055-.289a.211.211,0,0,0-.33-.081,1.307,1.307,0,0,0-.125.151,1.77,1.77,0,0,1-1.089.707,4.4,4.4,0,0,1-.869.164,4.137,4.137,0,0,1-.922-.148,2.706,2.706,0,0,1-1.883-1.525,4.452,4.452,0,0,1-.481-2.036c0-.1.006-.2,0-.3a4.311,4.311,0,0,1,.244-1.746,3.174,3.174,0,0,1,1.546-1.9,2.8,2.8,0,0,1,1.422-.341,4.763,4.763,0,0,1,.933.065,1.714,1.714,0,0,1,.92.531c.089.1.183.187.336.138M103.9,42.882a1.377,1.377,0,0,1-.141.2,2.076,2.076,0,0,0-.534,1.348,4.987,4.987,0,0,0,.153,2.047,1.8,1.8,0,0,0,.83,1.048,1.693,1.693,0,0,0,.913.141,1.127,1.127,0,0,0,.814-.295,2.874,2.874,0,0,1,.281-.208c.052-.1.1-.2.162-.3a4.166,4.166,0,0,0,.376-2,.971.971,0,0,0-.028-.144,3.087,3.087,0,0,1-.049-.39,2.155,2.155,0,0,0-.293-.98,1.64,1.64,0,0,0-2.133-.649c-.111.07-.232.124-.353.188" transform="translate(-30.396 -11.437)" fill="#003a96"/>
      <path id="Path_154" data-name="Path 154" d="M202.723,48.073c-.351.2-.232.67-.59.812a1.552,1.552,0,0,1-.677.048.385.385,0,0,1-.373-.386c0-.065,0-.132,0-.2q0-4.788,0-9.576a.759.759,0,0,1,.2-.631,5.014,5.014,0,0,1,1.436-.023.6.6,0,0,1,.225.509c0,.856,0,1.711,0,2.566,0,.179-.051.357-.068.535-.01.112,0,.12.183.292a.945.945,0,0,0,.186-.132,2.451,2.451,0,0,1,.754-.548,1.38,1.38,0,0,1,.506-.178,4.473,4.473,0,0,1,1.62.076,2.82,2.82,0,0,1,1.662,1.234,4.134,4.134,0,0,1,.618,2.2c0,.362.008.724-.008,1.086a3.59,3.59,0,0,1-.6,1.9,3,3,0,0,1-1.272,1.132,3.546,3.546,0,0,1-.606.2,3.283,3.283,0,0,1-1.021.142,2.777,2.777,0,0,1-1.574-.5c-.14-.113-.262-.249-.393-.373-.059-.056-.121-.108-.205-.185m2.634-.443a1.672,1.672,0,0,0,.645-.541,2.631,2.631,0,0,0,.418-1.348q0-.543.006-1.086a3.116,3.116,0,0,0-.313-1.278,1.672,1.672,0,0,0-1.747-.834,1.522,1.522,0,0,0-.781.4,1.792,1.792,0,0,0-.493.782c-.062.238-.119.474-.163.717a4.311,4.311,0,0,0,.208,2.226A1.575,1.575,0,0,0,204.98,47.7c.126-.034.258-.046.377-.067" transform="translate(-60.39 -11.436)" fill="#003a96"/>
      <path id="Path_155" data-name="Path 155" d="M67.341,42.445a4.088,4.088,0,0,1,1.168.1,3.162,3.162,0,0,1,1.97,1.522,5.347,5.347,0,0,1,.422,1.254,4.91,4.91,0,0,1,.08,1.713A4.233,4.233,0,0,1,70.39,48.9a3.07,3.07,0,0,1-1.9,1.385,4.994,4.994,0,0,1-1.709.156,3.739,3.739,0,0,1-1.891-.635,3.138,3.138,0,0,1-.908-1.026,3.769,3.769,0,0,1-.416-1.252,8.919,8.919,0,0,1-.086-1.322,4.546,4.546,0,0,1,.22-1.453A3.078,3.078,0,0,1,65.323,42.8a3.363,3.363,0,0,1,1.567-.36c.115,0,.23,0,.451,0M65.43,46.453l.036,0a4.8,4.8,0,0,0,0,.492,3.33,3.33,0,0,0,.362,1.365,1.464,1.464,0,0,0,1.483.762,1.464,1.464,0,0,0,1.478-1.083,3.257,3.257,0,0,0,.216-1,5.018,5.018,0,0,0-.133-1.8,2.8,2.8,0,0,0-.36-.8,1.515,1.515,0,0,0-1.648-.609,1.728,1.728,0,0,0-1.288,1.411,9.11,9.11,0,0,0-.148,1.264" transform="translate(-19.065 -12.747)" fill="#003a96"/>
      <path id="Path_156" data-name="Path 156" d="M219.774,48.72a4.529,4.529,0,0,1,.027,1.061.39.39,0,0,1-.347.363c-.339.06-.686.083-1.024.136a6.865,6.865,0,0,1-1.475.063,4.064,4.064,0,0,1-1.759-.415,3.155,3.155,0,0,1-1.289-1.248,4.862,4.862,0,0,1-.43-1.448,6.015,6.015,0,0,1-.089-.681,5.959,5.959,0,0,1,.119-1.073,3.041,3.041,0,0,1,.076-.385,3.308,3.308,0,0,1,2.091-2.487,2.036,2.036,0,0,1,.77-.153c.33,0,.659,0,.989,0a2.662,2.662,0,0,1,1.639.586,2.611,2.611,0,0,1,1.054,1.763,12.061,12.061,0,0,1,.168,1.511,1.859,1.859,0,0,1,0,.2.461.461,0,0,1-.465.476c-.114.011-.23,0-.346,0q-1.73,0-3.46,0a4.26,4.26,0,0,0-.444.018.25.25,0,0,0-.217.234.54.54,0,0,0,0,.2,2.071,2.071,0,0,0,.591,1.058,1.783,1.783,0,0,0,1.112.477,5.749,5.749,0,0,0,1.571-.091c.19-.052.383-.093.569-.155a.8.8,0,0,1,.565,0M218.4,45.461a1.748,1.748,0,0,0-.018-.311c-.043-.191-.106-.378-.161-.567a1.135,1.135,0,0,0-1.033-.845c-.115-.008-.231,0-.346,0a1.344,1.344,0,0,0-1.255.875,5.827,5.827,0,0,0-.227.795.427.427,0,0,0,.419.3c.707,0,1.415,0,2.123,0a.6.6,0,0,0,.5-.242" transform="translate(-64.085 -12.749)" fill="#003a96"/>
      <path id="Path_157" data-name="Path 157" d="M176.523,46.944a1.037,1.037,0,0,1-.476.041q-1.779,0-3.556,0c-.132,0-.264,0-.4.007a.283.283,0,0,0-.29.325.968.968,0,0,0,.029.292,1.839,1.839,0,0,0,1.694,1.355,4.839,4.839,0,0,0,1.57-.09,3.08,3.08,0,0,0,.421-.127.876.876,0,0,1,.481-.073.91.91,0,0,1,.22.1,4.745,4.745,0,0,1,.023,1.094.632.632,0,0,1-.442.282c-.242.043-.488.062-.729.109a6.688,6.688,0,0,1-1.571.087,5.311,5.311,0,0,1-1.122-.127,3.067,3.067,0,0,1-2.055-1.565A3.43,3.43,0,0,1,169.9,47.3a8.167,8.167,0,0,1-.062-.978,5.52,5.52,0,0,1,.111-1.073,4.075,4.075,0,0,1,.626-1.488,3.05,3.05,0,0,1,2.476-1.313c.313,0,.626,0,.938,0a2.793,2.793,0,0,1,2.554,2.223,2.956,2.956,0,0,1,.111.826c-.006.362.006.723.008,1.084a.378.378,0,0,1-.143.358m-1.774-1.41a1.578,1.578,0,0,0-.088-.922,1.312,1.312,0,0,0-.737-.81,1.854,1.854,0,0,0-.582-.069,1.215,1.215,0,0,0-1.076.478,1.96,1.96,0,0,0-.456,1.117c-.015.264.08.373.334.375.738.006,1.477,0,2.216,0a.522.522,0,0,0,.389-.171" transform="translate(-51.007 -12.748)" fill="#003a96"/>
      <path id="Path_158" data-name="Path 158" d="M55.745,40.14a.421.421,0,0,0-.193.428c0,.559,0,1.119,0,1.678,0,.277-.027.555-.045.9.006.015.032.093.068.167a.849.849,0,0,0,.087.121.5.5,0,0,0,.136.052c.148.01.3.013.444.014h2.373c.115,0,.232,0,.346.006a.38.38,0,0,1,.365.391c.009.262.007.526,0,.789a.273.273,0,0,1-.285.28c-.132.009-.264.006-.4.006-.824,0-1.648,0-2.472,0a.985.985,0,0,0-.511.066.688.688,0,0,0-.091.195,2.723,2.723,0,0,0-.015.393q0,1.406,0,2.812c0,.05,0,.1,0,.148a.446.446,0,0,1-.529.535c-.3-.02-.593,0-.89-.006-.113,0-.225-.024-.313-.034a.587.587,0,0,1-.221-.455c0-.1,0-.2,0-.3v-8.93c0-.083-.006-.165,0-.247a.463.463,0,0,1,.5-.488c.1-.007.2,0,.3,0h4.647a2.845,2.845,0,0,1,.346.008.424.424,0,0,1,.4.373,4.549,4.549,0,0,1,0,.787.33.33,0,0,1-.3.286,2.85,2.85,0,0,1-.395.013c-.973,0-1.944,0-2.917,0-.162,0-.325.011-.437.015" transform="translate(-16.097 -11.609)" fill="#003a96"/>
      <path id="Path_159" data-name="Path 159" d="M122.387,50.2a1.433,1.433,0,0,1-.249.048q-.52.007-1.038,0c-.192,0-.192-.006-.448-.16a.257.257,0,0,1-.024-.043.126.126,0,0,1-.012-.048q-.008-3.428-.014-6.856c0-.083,0-.164.011-.246a.716.716,0,0,1,.034-.12c.317-.351.753-.171,1.121-.211a.6.6,0,0,1,.4.489,2.8,2.8,0,0,0,.045.291.611.611,0,0,0,.134.168.488.488,0,0,0,.369-.27,1.705,1.705,0,0,1,.99-.687,1.3,1.3,0,0,1,.432-.093,9.006,9.006,0,0,1,1.038,0,2.3,2.3,0,0,1,1.294.556,2.38,2.38,0,0,1,.85,1.916c.012,1.414,0,2.828,0,4.243,0,.213.007.427,0,.641-.011.29-.139.421-.427.428-.33.008-.659,0-.989,0a.539.539,0,0,1-.414-.159.941.941,0,0,1-.045-.472c0-1.283,0-2.566,0-3.848a3.238,3.238,0,0,0-.143-1.117l-.362-.465a1.8,1.8,0,0,0-.99-.258,1.452,1.452,0,0,0-1.408.972,1.325,1.325,0,0,0-.063.534q0,2.073,0,4.144a3.209,3.209,0,0,1-.008.394.948.948,0,0,1-.091.227" transform="translate(-36.22 -12.749)" fill="#003a96"/>
      <path id="Path_160" data-name="Path 160" d="M89.238,42.816a.587.587,0,0,1,.456-.247,5.464,5.464,0,0,1,.642,0,.445.445,0,0,1,.443.392c.022.1.015.2.043.292a.234.234,0,0,0,.269.183c.164-.036.25-.187.358-.306a1.96,1.96,0,0,1,1.529-.676c.214,0,.429,0,.643,0a2.368,2.368,0,0,1,2.233,1.826,3.284,3.284,0,0,1,.083.632c.008,1.6.006,3.191.008,4.786a1.853,1.853,0,0,1-.006.2.369.369,0,0,1-.353.348c-.379.011-.758.012-1.137,0a.379.379,0,0,1-.379-.379c-.008-.114,0-.229,0-.345q0-1.925,0-3.849a3.983,3.983,0,0,0-.009-.493,1.238,1.238,0,0,0-1.185-1.234,1.689,1.689,0,0,0-.59.013,1.418,1.418,0,0,0-1.18,1.436c-.023,1.364-.008,2.729-.009,4.094,0,.115.006.231,0,.346-.015.261-.143.407-.393.414-.362.01-.725.01-1.087,0a.385.385,0,0,1-.394-.416c0-.082,0-.164,0-.246q0-3.182,0-6.365c0-.146.013-.292.019-.4" transform="translate(-26.795 -12.75)" fill="#003a96"/>
      <path id="Path_161" data-name="Path 161" d="M83.252,50.153a1.248,1.248,0,0,1-.334.132,7.438,7.438,0,0,1-.79,0,.365.365,0,0,1-.33-.26c-.053-.137-.078-.285-.127-.425a.23.23,0,0,0-.421-.074,2.212,2.212,0,0,1-.456.514.914.914,0,0,1-.286.188,3.22,3.22,0,0,1-1.884.176,2.725,2.725,0,0,1-1.039-.426,2.192,2.192,0,0,1-.67-.892,3.821,3.821,0,0,1-.26-1.4c-.008-1.5-.006-2.994-.006-4.491,0-.129.016-.259.023-.361a.578.578,0,0,1,.457-.229c.346-.006.692-.006,1.038,0a1.1,1.1,0,0,1,.281.091.813.813,0,0,1,.1.663,1.322,1.322,0,0,0-.02.392c0,1.168-.007,2.336,0,3.5a8.064,8.064,0,0,0,.085.833,1.531,1.531,0,0,0,2.448.445c.024-.039.048-.082.075-.124a1.841,1.841,0,0,0,.26-1.033c-.014-1.366,0-2.732-.008-4.1a.755.755,0,0,1,.2-.632.94.94,0,0,1,.486-.052,7.089,7.089,0,0,1,.791.017,1.282,1.282,0,0,1,.358.16,3.013,3.013,0,0,1,.043.356q0,3.356,0,6.713c0,.081-.012.163-.022.3" transform="translate(-23.019 -12.795)" fill="#003a96"/>
      <path id="Path_162" data-name="Path 162" d="M227.24,42.8a1.842,1.842,0,0,1,.163.617.969.969,0,0,0,.141.274,1.829,1.829,0,0,0,.221-.138.732.732,0,0,0,.12-.156,1.822,1.822,0,0,1,1.5-.809c.2-.013.393,0,.559,0a.414.414,0,0,1,.183.464,1.3,1.3,0,0,0,.023.763.454.454,0,0,1-.4.437,1.773,1.773,0,0,0-.977.012,1.433,1.433,0,0,0-.985.821,1.112,1.112,0,0,0-.087.379c-.016.213-.013.428-.013.642q0,1.727,0,3.454c0,.115.006.231,0,.346a.376.376,0,0,1-.375.381c-.247.013-.495.008-.742,0a1.892,1.892,0,0,1-.652-.048.879.879,0,0,1-.1-.213,2.094,2.094,0,0,1-.012-.344q0-3.208,0-6.415a2.7,2.7,0,0,1,.013-.345.306.306,0,0,1,.241-.283,1.458,1.458,0,0,1,1.14.129.418.418,0,0,1,.036.032" transform="translate(-67.817 -12.789)" fill="#003a96"/>
      <path id="Path_163" data-name="Path 163" d="M114.826,46.552q0-1.577,0-3.155A2.841,2.841,0,0,1,114.84,43a.419.419,0,0,1,.393-.381,9.844,9.844,0,0,1,1.036,0,.438.438,0,0,1,.413.418,2.306,2.306,0,0,1,.008.3q0,3.155,0,6.31a2.774,2.774,0,0,1-.006.3.374.374,0,0,1-.355.348c-.378.013-.757.015-1.136,0a.375.375,0,0,1-.365-.39c-.007-.1,0-.2,0-.3V46.552" transform="translate(-34.485 -12.797)" fill="#003a96"/>
      <path id="Path_164" data-name="Path 164" d="M231.464,54.826c-.2-.169-.145-.374-.125-.564a3.891,3.891,0,0,1,.115-.674c.16-.554.158-1.131.269-1.69.041-.208.075-.418.132-.622a1.617,1.617,0,0,1,.162-.308,2.187,2.187,0,0,1,.292-.046c.312,0,.624,0,.936,0a.425.425,0,0,1,.421.252,3.622,3.622,0,0,1-.2.822,6.017,6.017,0,0,0-.259.994,2.668,2.668,0,0,1-.1.325c-.064.218-.126.438-.19.656-.05.173-.1.346-.153.516a.52.52,0,0,1-.479.367,2.387,2.387,0,0,1-.812-.027" transform="translate(-69.471 -15.292)" fill="#003a96"/>
      <path id="Path_165" data-name="Path 165" d="M115.651,37.968a1.421,1.421,0,0,1,.939.505,1,1,0,0,1-.029,1.263c-.108.123-.211.251-.25.3a1.51,1.51,0,0,1-.725.171,1.229,1.229,0,0,1-1.007-.83.768.768,0,0,1-.007-.479,1.159,1.159,0,0,1,.807-.851l.273-.076" transform="translate(-34.398 -11.403)" fill="#003a96"/>
      <path id="Path_166" data-name="Path 166" d="M438.5,18.75a2.917,2.917,0,0,1-.1-.381,3.228,3.228,0,0,1,0-.395q0-3.207,0-6.415c0-.556-.038-.6-.58-.6-2.176,0-4.352,0-6.527,0-.451,0-.535.1-.533.549q.008,3.257,0,6.513c0,.115,0,.23,0,.346a.526.526,0,0,1-.17.383,1.762,1.762,0,0,1-.257.032q-1.138.005-2.275,0a.427.427,0,0,1-.424-.162,1.07,1.07,0,0,1-.033-.2c0-5.608,0-11.216,0-16.787a.53.53,0,0,1,.507-.227h2.077a1.933,1.933,0,0,1,.247.01.369.369,0,0,1,.323.323c.013.131.007.263.007.395q0,2.911,0,5.822a1,1,0,0,0,.066.518,1.783,1.783,0,0,0,.286.112,1.389,1.389,0,0,0,.3.008h6.231a.867.867,0,0,0,.691-.185.783.783,0,0,0,.064-.481q0-2.911,0-5.822c0-.115-.006-.231,0-.346a.371.371,0,0,1,.355-.348q1.211-.013,2.423,0a.373.373,0,0,1,.367.388c.007.1,0,.2,0,.3q0,7.969,0,15.938a2.916,2.916,0,0,1-.014.443.429.429,0,0,1-.5.366,11.734,11.734,0,0,0-2.067-.02,2.2,2.2,0,0,1-.462-.07" transform="translate(-128.421 -0.422)" fill="#003a96"/>
      <path id="Path_167" data-name="Path 167" d="M309.727,17.961a2.886,2.886,0,0,1-1.012.407c-.537.15-1.087.257-1.63.383a.77.77,0,0,1-.1.015c-.474.038-.951.066-1.424.117a8.161,8.161,0,0,1-1.376.081c-.18-.012-.359-.034-.538-.052a1.463,1.463,0,0,0-.245-.026c-.465.029-.914-.108-1.375-.12a1.267,1.267,0,0,1-.286-.067c-.223-.061-.441-.131-.665-.184a7.241,7.241,0,0,1-5.03-4.405c-.227-.587-.344-1.2-.522-1.793a.568.568,0,0,1-.027-.145,18.087,18.087,0,0,1-.111-1.816c.018-.278,0-.559,0-.839a2.36,2.36,0,0,1,.062-.685.911.911,0,0,0,.024-.293,3.293,3.293,0,0,1,.178-1.063c.066-.219.087-.452.159-.669a7.585,7.585,0,0,1,.372-.965,8.928,8.928,0,0,1,1.154-1.825,7.732,7.732,0,0,1,2.226-1.752,8.986,8.986,0,0,1,2.741-.928,13.745,13.745,0,0,1,3.388-.216c.375.022.747.1,1.121.148.358.048.716.086,1.074.138a5.022,5.022,0,0,1,1.288.373,1.34,1.34,0,0,1,.063.281c.006.576,0,1.151,0,1.727a.943.943,0,0,1-.011.147.276.276,0,0,1-.327.227.51.51,0,0,1-.141-.039c-.432-.215-.923-.236-1.367-.414a1.053,1.053,0,0,0-.243-.034c-.423-.058-.845-.118-1.267-.174a2.993,2.993,0,0,0-.345-.022c-.281,0-.56,0-.841,0A7.387,7.387,0,0,0,301.908,4a4.2,4.2,0,0,0-1.213.747,5.4,5.4,0,0,0-1.259,1.565,4.185,4.185,0,0,0-.312.774,7.363,7.363,0,0,0-.383,1.823c-.008.344-.071.686-.071,1.029a9.962,9.962,0,0,0,.4,2.814,5.259,5.259,0,0,0,.944,1.881,4.766,4.766,0,0,0,2.254,1.614c.173.054.343.118.515.174a1.164,1.164,0,0,0,.285.078,12.475,12.475,0,0,0,1.919.1c.327-.031.654-.063.979-.112a1.838,1.838,0,0,0,.423-.132.507.507,0,0,0,.335-.629,3.454,3.454,0,0,1-.038-.44q-.005-1.16,0-2.319a1.548,1.548,0,0,1,.034-.391.833.833,0,0,0-.115-.671,1.884,1.884,0,0,0-.663-.066c-.608.036-1.219.019-1.828.016a.578.578,0,0,1-.473-.211,14.948,14.948,0,0,1-.025-1.923.552.552,0,0,1,.078-.15.777.777,0,0,1,.456-.079q2.522,0,5.043,0a.768.768,0,0,1,.46.082.7.7,0,0,1,.084.2,2.955,2.955,0,0,1,.011.394q0,3.626,0,7.253c0,.178-.011.357-.018.548" transform="translate(-88.711 -0.329)" fill="#003a96"/>
      <path id="Path_168" data-name="Path 168" d="M491.088,19.341c-.015.19-.033.318-.033.446q0,2.368,0,4.736a1.153,1.153,0,0,1-.048.525c-.123.164-.3.141-.458.142q-.914,0-1.829,0c-.18,0-.36-.006-.509-.008a.484.484,0,0,1-.211-.411c0-.1,0-.2,0-.3V8.638c0-.115-.006-.231,0-.346a.374.374,0,0,1,.376-.381c.609-.008,1.217,0,1.818,0l.29.262A6.951,6.951,0,0,0,491,9.7a2.1,2.1,0,0,0,.224-.161.5.5,0,0,0,.07-.129,3.059,3.059,0,0,1,2.242-1.6c.369-.074.744-.123,1.116-.183a.553.553,0,0,1,.148-.008,8.954,8.954,0,0,1,1.984.342,4.216,4.216,0,0,1,1.126.607c.183.138.359.287.535.434a4.5,4.5,0,0,1,.842,1.084,5.493,5.493,0,0,1,.6,1.394c.119.391.192.8.274,1.2a10.386,10.386,0,0,1,.086,2.457,8.867,8.867,0,0,1-.215,1.307,6.115,6.115,0,0,1-.716,1.928,4.833,4.833,0,0,1-1.965,1.95,5.6,5.6,0,0,1-1.63.536,6.793,6.793,0,0,1-1.622.071,3.545,3.545,0,0,1-2.217-.835,2.3,2.3,0,0,1-.253-.3,1.209,1.209,0,0,0-.538-.453m5.9-5.017a6.523,6.523,0,0,0-.254-2.037,3.463,3.463,0,0,0-.71-1.439,1.732,1.732,0,0,0-.482-.417,2.08,2.08,0,0,0-1.1-.376,2.206,2.206,0,0,0-1.308.078,2.29,2.29,0,0,0-1.357,1,3.777,3.777,0,0,0-.609,1.591c-.018.113-.051.225-.062.338-.046.455-.09.912-.126,1.368a1.4,1.4,0,0,0,.038.292,1.521,1.521,0,0,1,.035.243,6.509,6.509,0,0,0,.178,1.212,3.313,3.313,0,0,0,.663,1.458,2.179,2.179,0,0,0,1.471.906c.292.038.592.014.887.031a2.318,2.318,0,0,0,1.783-.817,2.571,2.571,0,0,0,.651-1.2,6.542,6.542,0,0,0,.306-2.232" transform="translate(-146.56 -2.288)" fill="#003a96"/>
      <path id="Path_169" data-name="Path 169" d="M463.834,14.285c0,.264,0,.527,0,.79a7.036,7.036,0,0,1-.749,2.983,4.4,4.4,0,0,1-.9,1.285,5.969,5.969,0,0,1-1.814,1.171,9,9,0,0,1-1.621.4,6.671,6.671,0,0,1-1.326.1,8.128,8.128,0,0,1-1.174-.134c-.146-.019-.29-.052-.436-.08a5.345,5.345,0,0,1-1.7-.643A5.049,5.049,0,0,1,452.21,18.2a3.737,3.737,0,0,1-.461-1.19c-.035-.225-.157-.425-.2-.656-.063-.326-.041-.658-.1-.977a6.75,6.75,0,0,1-.073-1.227,11.319,11.319,0,0,1,.167-1.711,5.984,5.984,0,0,1,.648-1.949,5.034,5.034,0,0,1,2.023-2.1,5.206,5.206,0,0,1,1.706-.609c.113-.018.224-.053.336-.079a6.568,6.568,0,0,1,2.114-.092,6.9,6.9,0,0,1,2.685.76,5.348,5.348,0,0,1,1.46,1.233,4.151,4.151,0,0,1,.295.395,6.054,6.054,0,0,1,.684,1.467,8,8,0,0,1,.323,1.487,2.68,2.68,0,0,1,.018.344c0,.33,0,.658,0,.987h0m-3.264.052h0c0-.164,0-.329,0-.493a5.706,5.706,0,0,0-.381-2.213,2.892,2.892,0,0,0-.729-1.152,2.757,2.757,0,0,0-.882-.524,2.716,2.716,0,0,0-2.454.259,1.683,1.683,0,0,0-.453.374,4.066,4.066,0,0,0-.663,1.141,7.469,7.469,0,0,0-.363,2.022,14.658,14.658,0,0,0,.1,2.158.456.456,0,0,0,.016.1,4.727,4.727,0,0,0,.679,1.671,7.141,7.141,0,0,0,.723.733,2.649,2.649,0,0,0,1.364.353,2.476,2.476,0,0,1,.395,0,1.94,1.94,0,0,0,.766-.162,2.541,2.541,0,0,0,1.445-1.468,5.2,5.2,0,0,0,.44-2.053c0-.246,0-.493,0-.739" transform="translate(-135.56 -2.273)" fill="#003a96"/>
      <path id="Path_170" data-name="Path 170" d="M397.042,12.99a.457.457,0,0,0,.176-.36,2.98,2.98,0,0,0-.368-1.657,1.345,1.345,0,0,0-.491-.472,2.637,2.637,0,0,0-1.366-.358c-.313,0-.626,0-.939,0a5.271,5.271,0,0,0-1.553.238,1.206,1.206,0,0,1-.189.053,3.36,3.36,0,0,0-.947.262c-.2.09-.354-.017-.379-.239,0-.016,0-.033,0-.049,0-.559-.008-1.118,0-1.677,0-.287.108-.393.409-.467.334-.083.67-.163,1.005-.243a1.146,1.146,0,0,1,.193-.037c.64-.034,1.274-.146,1.919-.118.427.018.858.019,1.285,0A5.366,5.366,0,0,1,397.168,8a3.8,3.8,0,0,1,2.249,1.23,2.921,2.921,0,0,1,.609,1.164,8.8,8.8,0,0,1,.265,2.091c-.008,1.578,0,3.157,0,4.736a4.389,4.389,0,0,0,.014.542.931.931,0,0,0,.917.867,3.164,3.164,0,0,0,.346,0c.113,0,.225.018.356.029a1.056,1.056,0,0,1,.062.24c.006.477.01.954,0,1.431a.419.419,0,0,1-.444.478c-.278.027-.555.06-.833.087a4.51,4.51,0,0,1-1.373-.11,1.969,1.969,0,0,1-1.619-1.477,1.338,1.338,0,0,0-.127-.253.532.532,0,0,0-.427.33,2.546,2.546,0,0,1-1.232,1.091,4.068,4.068,0,0,1-1.854.431c-.23,0-.461.007-.692,0a3.842,3.842,0,0,1-2.731-1.182,3.576,3.576,0,0,1-.67-1.08,4.218,4.218,0,0,1-.271-1.981,2.118,2.118,0,0,1,.092-.53,8.277,8.277,0,0,1,.315-.825,2.955,2.955,0,0,1,.88-1.05,3.1,3.1,0,0,1,.7-.451,4.925,4.925,0,0,1,1.106-.412c.209-.039.412-.112.62-.161a8.189,8.189,0,0,1,.923-.142,20.672,20.672,0,0,1,2.515-.075,1.024,1.024,0,0,0,.175-.029M394.7,18.659a6.394,6.394,0,0,0,.708-.127,2.233,2.233,0,0,0,1.316-.973,2.279,2.279,0,0,0,.416-1.245,1.866,1.866,0,0,1,.026-.194c.02-.228.036-.455.057-.683a.421.421,0,0,0-.461-.453c-.345.013-.691,0-1.036,0a4.532,4.532,0,0,0-1.68.305,1.743,1.743,0,0,0-1.166,1.8,1.565,1.565,0,0,0,1.264,1.489c.177.026.355.049.556.076" transform="translate(-117.038 -2.362)" fill="#003a96"/>
      <path id="Path_171" data-name="Path 171" d="M532.362,10.738a.571.571,0,0,1-.192-.45c0-.46,0-.921,0-1.382a1.15,1.15,0,0,1,.172-.571c.126-.033.251-.067.377-.1a11.151,11.151,0,0,1,2.926-.365c.428.009.858.016,1.286,0A6.342,6.342,0,0,1,538.405,8a4.655,4.655,0,0,1,1.341.479,3.137,3.137,0,0,1,1.416,1.585,4.205,4.205,0,0,1,.192.658,7.316,7.316,0,0,1,.114,1.765c0,1.333-.007,2.665,0,4,0,.458.046.917.094,1.373a.9.9,0,0,0,.844.77,3.158,3.158,0,0,0,.346,0c.1,0,.2,0,.3.006a.607.607,0,0,1,.122.038,1.063,1.063,0,0,1,.066.257c.008.461.01.921,0,1.383-.006.343-.133.479-.48.488a8.876,8.876,0,0,1-1.179.093,6.907,6.907,0,0,1-1.076-.115,2.1,2.1,0,0,1-1.158-.705,1.406,1.406,0,0,1-.381-.731.317.317,0,0,0-.064-.129.208.208,0,0,0-.265-.058.9.9,0,0,0-.208.2,3.318,3.318,0,0,1-1.644,1.278,4.471,4.471,0,0,1-1.394.265c-.214.01-.43-.009-.643,0a9.239,9.239,0,0,1-1.077-.116.186.186,0,0,1-.048-.01,3.862,3.862,0,0,1-1.968-1.339,3.387,3.387,0,0,1-.689-1.967c0-.132.007-.264,0-.395a3.159,3.159,0,0,1,.346-1.668,2.612,2.612,0,0,1,.367-.581,4.347,4.347,0,0,1,1.571-1.159,14.276,14.276,0,0,1,1.406-.446,4.272,4.272,0,0,1,.826-.129,18.755,18.755,0,0,1,2.268-.087h.517a.542.542,0,0,0,.206-.55c-.022-.245-.042-.49-.078-.733a1.8,1.8,0,0,0-.112-.424,1.888,1.888,0,0,0-1.757-1.147,11.358,11.358,0,0,0-1.581,0,4.247,4.247,0,0,0-1.066.183,3.536,3.536,0,0,1-.381.1,3.41,3.41,0,0,0-.849.248.987.987,0,0,1-.283.047m5.93,4.287c-.115-.013-.211-.034-.308-.035-.362,0-.724-.007-1.087,0a4.182,4.182,0,0,0-1.723.355,1.654,1.654,0,0,0-1,1.192,2.466,2.466,0,0,0-.022.735,1.565,1.565,0,0,0,1.133,1.286,2.477,2.477,0,0,0,1.265,0,2.126,2.126,0,0,0,1.58-1.341c.033-.092.089-.176.12-.269a1.9,1.9,0,0,0,.13-.472c.024-.393.024-.788.017-1.182a.849.849,0,0,0-.1-.266" transform="translate(-159.46 -2.362)" fill="#003a96"/>
      <path id="Path_172" data-name="Path 172" d="M330.511,15.184c-.148,0-.328.013-.507.013h-6.771c-.1,0-.2,0-.3,0a.45.45,0,0,0-.47.312c.06.276.11.567.188.85a2.684,2.684,0,0,0,1.01,1.527,3.409,3.409,0,0,0,2.016.678c.4,0,.792.019,1.185-.01a7.889,7.889,0,0,0,1.215-.176A7.761,7.761,0,0,0,329.453,18a.607.607,0,0,1,.243-.029.267.267,0,0,1,.271.236.281.281,0,0,1,.007.049c0,.607,0,1.215,0,1.828l-.288.3c-.409.09-.779.166-1.145.255-.323.078-.655.062-.977.113a13.755,13.755,0,0,1-2.464.07,6.69,6.69,0,0,1-2.853-.686,4.849,4.849,0,0,1-2.088-1.963,6.688,6.688,0,0,1-.786-2.713c-.006-.423-.088-.847-.073-1.274a2.32,2.32,0,0,1,.059-.635,1.229,1.229,0,0,0,.027-.342,4.917,4.917,0,0,1,.225-1.3,8.039,8.039,0,0,1,.436-1.2,5.486,5.486,0,0,1,.826-1.272,4.822,4.822,0,0,1,1.284-1.068,4.636,4.636,0,0,1,1.464-.565c.129-.023.256-.059.384-.088a7.74,7.74,0,0,1,1.965-.1,1.316,1.316,0,0,1,.242.041c.257.052.514.11.771.161a4.56,4.56,0,0,1,1.317.541,3.963,3.963,0,0,1,1.333,1.22,5.5,5.5,0,0,1,.521.943,9.431,9.431,0,0,1,.49,2.1,6.611,6.611,0,0,1,.03,1.131,2.958,2.958,0,0,0,.055.636.748.748,0,0,1-.221.8m-2.934-2.439c-.024-.232-.048-.46-.072-.688a2.67,2.67,0,0,0-.791-1.752,1.911,1.911,0,0,0-1.243-.53,3.905,3.905,0,0,0-.593,0,2.209,2.209,0,0,0-1.636.889,3.935,3.935,0,0,0-.69,2.022.677.677,0,0,0,.036.208.478.478,0,0,0,.433.142H325.1c.676,0,1.352,0,2.028,0a.413.413,0,0,0,.452-.293" transform="translate(-95.894 -2.281)" fill="#003a96"/>
      <path id="Path_173" data-name="Path 173" d="M369.69,15.182c-.156,0-.319.015-.482.015h-6.726c-.132,0-.264,0-.4,0a.44.44,0,0,0-.447.3,4.608,4.608,0,0,0,.631,1.812,2.939,2.939,0,0,0,1.084.9,3.676,3.676,0,0,0,1.767.366l.742-.006a6.557,6.557,0,0,0,1.462-.2c.446-.108.888-.239,1.332-.358a1.071,1.071,0,0,1,.192-.039.264.264,0,0,1,.28.224,1.224,1.224,0,0,1,.013.2q0,.716,0,1.432a.964.964,0,0,1-.013.2.43.43,0,0,1-.341.381c-.647.108-1.276.29-1.937.353a21.217,21.217,0,0,1-2.564.069,6.56,6.56,0,0,1-2.9-.705A4.76,4.76,0,0,1,359.257,18a7.626,7.626,0,0,1-.514-1.33,5.319,5.319,0,0,1-.148-.82,9.178,9.178,0,0,1-.122-1.863c.035-.407.134-.81.147-1.217a4.907,4.907,0,0,1,.318-1.331,5.645,5.645,0,0,1,1.248-2.154,4.732,4.732,0,0,1,1.327-1.01A4.087,4.087,0,0,1,362.8,7.8a.986.986,0,0,0,.2-.025,5.835,5.835,0,0,1,2.056-.169,1.954,1.954,0,0,1,.34.05c.257.05.518.093.772.16a4.448,4.448,0,0,1,2.862,2.1,5.961,5.961,0,0,1,.724,2.327c.062.507.073,1.013.1,1.52.017.293.086.583.074.88a.736.736,0,0,1-.239.542M366.6,13.019a.44.44,0,0,0,.15-.458,2.286,2.286,0,0,1-.065-.386,2.786,2.786,0,0,0-.279-1.141A2.037,2.037,0,0,0,365.46,10a2.314,2.314,0,0,0-1.244-.236,2.247,2.247,0,0,0-1.986,1.166,4.919,4.919,0,0,0-.509,1.685.58.58,0,0,0,0,.148.268.268,0,0,0,.253.257,3.336,3.336,0,0,0,.345.012q1.929,0,3.857,0c.146,0,.293-.012.428-.017" transform="translate(-107.655 -2.281)" fill="#003a96"/>
      <path id="Path_174" data-name="Path 174" d="M342.243,20.535a.6.6,0,0,1-.576.151,2.925,2.925,0,0,0-.688-.032,6.421,6.421,0,0,0-1.231.049.41.41,0,0,1-.495-.366,3.013,3.013,0,0,1-.014-.443q0-5.085,0-10.169c0-.395,0-.79,0-1.185a2.313,2.313,0,0,1,.01-.3.389.389,0,0,1,.32-.33.284.284,0,0,1,.049-.006h1.807a1.134,1.134,0,0,1,.362.61,4.6,4.6,0,0,1,.12.627.673.673,0,0,0,.271.528,1.187,1.187,0,0,0,.227-.159,1.1,1.1,0,0,0,.149-.253A2.672,2.672,0,0,1,343.7,8.145a3.781,3.781,0,0,1,1.6-.443c.131-.01.26-.036.39-.052a1.238,1.238,0,0,1,.293-.027,6.469,6.469,0,0,1,2.338.537,3.483,3.483,0,0,1,.65.441,3.622,3.622,0,0,1,1.078,1.506,5.408,5.408,0,0,1,.276,1.29c.134,1.313.06,2.628.073,3.942s0,2.6,0,3.9c0,.279,0,.559,0,.839a1.375,1.375,0,0,1-.023.294.414.414,0,0,1-.474.335,12.037,12.037,0,0,0-1.824-.051,2.562,2.562,0,0,0-.4.052l-.276-.157a.75.75,0,0,1-.051-.158c-.008-.164-.011-.329-.011-.493q0-3.529,0-7.059a4.578,4.578,0,0,0-.187-1.21,2.125,2.125,0,0,0-1.96-1.467c-.2.006-.4,0-.593,0a2.227,2.227,0,0,0-1.528.6,2.077,2.077,0,0,0-.579.959,4.935,4.935,0,0,0-.2,1.553c.01,2.238.006,4.475,0,6.713a1.128,1.128,0,0,1-.06.548" transform="translate(-101.883 -2.288)" fill="#003a96"/>
      <path id="Path_175" data-name="Path 175" d="M480.025,10.613a.3.3,0,0,1-.4.081,6.126,6.126,0,0,0-1.221-.386,5.523,5.523,0,0,0-1.019-.157c-.294-.026-.592-.008-.889-.01a1.7,1.7,0,0,0-1.1.357,2.129,2.129,0,0,1-.183.115c-.049.087-.1.188-.162.286a.753.753,0,0,0,.124.91,2.107,2.107,0,0,0,.437.4,5.968,5.968,0,0,0,1,.514c.539.246,1.1.444,1.627.71a5.244,5.244,0,0,1,1.416.973,5.115,5.115,0,0,1,.852,1.254.5.5,0,0,1,.05.139,5.609,5.609,0,0,1-.01,2.44,3.117,3.117,0,0,1-.43.884,3.424,3.424,0,0,1-2.009,1.412c-.079.022-.157.05-.235.078a5.427,5.427,0,0,1-1.79.294c-.412.008-.825.018-1.236,0a7.9,7.9,0,0,1-2.138-.315c-.139-.046-.289-.058-.432-.093a.47.47,0,0,1-.409-.486c-.013-.345,0-.691,0-1.036v-.953a1.368,1.368,0,0,1,.292-.079.706.706,0,0,1,.289.05c.535.218,1.108.309,1.656.483a.609.609,0,0,0,.141.043,9.809,9.809,0,0,0,1.669.113,4.3,4.3,0,0,0,.82-.156,1.4,1.4,0,0,0,.86-.841v-.565a2.287,2.287,0,0,0-.845-.965,6.775,6.775,0,0,0-.886-.43,19.321,19.321,0,0,1-2.053-.956,6.579,6.579,0,0,1-.852-.586,3.461,3.461,0,0,1-1.05-1.746,1.236,1.236,0,0,1-.035-.292c-.008-.148,0-.3-.008-.444a3.215,3.215,0,0,1,.349-1.667,3.072,3.072,0,0,1,.861-1.066,4.806,4.806,0,0,1,2.243-.952,13.088,13.088,0,0,1,2.808-.068,4.967,4.967,0,0,1,1.5.271.927.927,0,0,1,.412.225,1.11,1.11,0,0,1,.045.209,11.32,11.32,0,0,1-.052,2.013" transform="translate(-141.711 -2.359)" fill="#003a96"/>
      <path id="Path_176" data-name="Path 176" d="M518.354,8.961a.4.4,0,0,0-.366-.125H516.7c-.551,0-.579-.028-.581-.591,0-.492,0-.984,0-1.442a.515.515,0,0,1,.5-.234q.618,0,1.236,0a.809.809,0,0,0,.422-.051.363.363,0,0,0,.131-.318c0-.279,0-.559,0-.838,0-.526,0-1.052,0-1.578,0-.4.065-.493.437-.605.456-.138.917-.257,1.373-.4a4.039,4.039,0,0,0,.7-.226.384.384,0,0,1,.493.073,1.034,1.034,0,0,1,.049.489c0,.97,0,1.94,0,2.91,0,.487.052.539.534.541.807,0,1.615,0,2.422,0,.161,0,.334-.035.483.138a1.527,1.527,0,0,1,.042.257c0,.477,0,.954,0,1.431a1.225,1.225,0,0,1-.015.2.257.257,0,0,1-.224.229,3.145,3.145,0,0,1-.345.013c-.791,0-1.581,0-2.373,0a.542.542,0,0,0-.494.153,3.242,3.242,0,0,0-.031.344c0,1.94.006,3.88,0,5.82a4.145,4.145,0,0,0,.106.826,1.283,1.283,0,0,0,1.264,1.042,4.342,4.342,0,0,0,1.652-.218c.076-.026.154-.048.255-.08a1.125,1.125,0,0,1,.178.22.617.617,0,0,1,.023.243q0,.74,0,1.479a2.5,2.5,0,0,1-.029.27.63.63,0,0,1-.485.257,18.1,18.1,0,0,1-1.968.113,6.339,6.339,0,0,1-2.124-.364,2.668,2.668,0,0,1-1.47-1.245,3.54,3.54,0,0,1-.374-1.216,15.2,15.2,0,0,1-.083-2.163c0-1.628,0-3.256,0-4.883a.9.9,0,0,0-.055-.474" transform="translate(-155.006 -0.751)" fill="#003a96"/>
      <path id="Path_177" data-name="Path 177" d="M410.2.578a.659.659,0,0,1,.164-.038q1.186,0,2.371,0a1.059,1.059,0,0,1,.209.049,1.129,1.129,0,0,1,.1.264c.016.162,0,.328,0,.493q0,8.235,0,16.472c0,.18-.006.359-.01.551l-.291.194c-.28-.015-.508-.035-.736-.037-.511-.006-1.022,0-1.532,0a.389.389,0,0,1-.387-.174.994.994,0,0,1-.031-.432q0-8.162,0-16.324c0-.23,0-.46,0-.691A.363.363,0,0,1,410.2.578" transform="translate(-123.149 -0.162)" fill="#003a96"/>
      <path id="Path_178" data-name="Path 178" d="M554.193,18.434a.509.509,0,0,1-.437.146,5.389,5.389,0,0,0-.636-.052c-.462-.007-.923,0-1.385,0a.388.388,0,0,1-.39-.185,1.057,1.057,0,0,1-.025-.423q0-8.117,0-16.233c0-.247-.006-.493,0-.74A3.446,3.446,0,0,1,551.363.6a.889.889,0,0,1,.2-.055q1.211-.005,2.423,0a.941.941,0,0,1,.167.036,1.616,1.616,0,0,1,.056.271c.008.2,0,.395,0,.592q0,8.165,0,16.332c0,.228-.011.456-.017.66" transform="translate(-165.575 -0.162)" fill="#003a96"/>
      <path id="Path_179" data-name="Path 179" d="M381.219,20.775c-.327-.018-.588-.049-.849-.043a9.113,9.113,0,0,0-1.429.039.941.941,0,0,1-.348-.067.6.6,0,0,1-.183-.479c0-.229,0-.46,0-.69q0-5.375,0-10.749a.888.888,0,0,1,.21-.755,1.715,1.715,0,0,1,.657-.045c.231-.008.462-.007.692,0a2.039,2.039,0,0,1,.695.048.585.585,0,0,1,.108.155c.107.36.211.721.3,1.085.049.19.066.388.108.58a.632.632,0,0,0,.1.168.7.7,0,0,0,.422-.472,2.241,2.241,0,0,1,.7-.877,1.859,1.859,0,0,1,.754-.451c.141-.045.277-.1.416-.154A.733.733,0,0,1,383.761,8a11.375,11.375,0,0,1,1.422-.123.431.431,0,0,1,.439.427c-.008.674,0,1.348-.007,2.021a.364.364,0,0,1-.49.39,3.517,3.517,0,0,0-1.275-.065,2.378,2.378,0,0,0-1.844.893,1.6,1.6,0,0,0-.225.378,4.628,4.628,0,0,0-.31,1.632c.017,2.153.008,4.306.008,6.459,0,.115,0,.23,0,.345a.409.409,0,0,1-.26.416" transform="translate(-113.647 -2.366)" fill="#003a96"/>
      <path id="Path_180" data-name="Path 180" d="M511.921,20.765l-.478.008c-.625.009-1.25.017-1.875.028a.605.605,0,0,1-.442-.138.852.852,0,0,1-.069-.5q0-2.761,0-5.523,0-2.959,0-5.917a3.138,3.138,0,0,1,.008-.344.4.4,0,0,1,.358-.35.769.769,0,0,1,.1,0c.708,0,1.417.008,2.125,0a.44.44,0,0,1,.474.5c-.014.18,0,.361,0,.542q0,5.5,0,11a.835.835,0,0,1-.195.707" transform="translate(-152.883 -2.41)" fill="#003a96"/>
      <path id="Path_181" data-name="Path 181" d="M510.443,3.962a1.745,1.745,0,0,1-1.555-.807,1.372,1.372,0,0,1-.206-.5,1.879,1.879,0,0,1,.23-1.511,1.641,1.641,0,0,1,1.22-.743,2.414,2.414,0,0,1,.737.01,1.807,1.807,0,0,1,.637,3.261,1.491,1.491,0,0,1-1.063.285" transform="translate(-152.752 -0.115)" fill="#003a96"/>
      <path id="Path_182" data-name="Path 182" d="M57.7,1.6c.242.6.475,1.227.754,1.838s.507,1.245.794,1.853c.175.37.285.772.473,1.135.2.394.3.83.535,1.211a5.812,5.812,0,0,1,.35.865c.307.743.634,1.478.924,2.228.255.658.585,1.285.8,1.958a7.569,7.569,0,0,0,.348.815,2.66,2.66,0,0,1,.245.642c.011.063.1.127.164.162a.212.212,0,0,0,.251-.108,1.469,1.469,0,0,0,.113-.218c.283-.717.56-1.437.848-2.152.141-.35.308-.689.454-1.038.134-.318.255-.64.385-.96.19-.47.37-.945.586-1.4.181-.386.311-.794.467-1.191.132-.334.27-.667.4-1,.19-.47.376-.942.567-1.412.1-.243.206-.483.307-.725q.367-.885.733-1.772c.1-.242.2-.486.3-.735a.708.708,0,0,1,.536-.195c.989,0,1.978,0,2.967,0a1.019,1.019,0,0,1,.2.016.41.41,0,0,1,.346.507,2.869,2.869,0,0,0-.048.686q0,7.477,0,14.953c0,.261.026.522.045.873l-.16.311c-.151.013-.281.032-.411.033-.676,0-1.352,0-2.028,0a2.235,2.235,0,0,1-.247-.008.284.284,0,0,1-.275-.292c-.008-.1,0-.2,0-.3q0-5.872.006-11.745a1.562,1.562,0,0,0-.045-.556l-.192-.042c-.056.113-.113.211-.155.316q-.259.639-.51,1.28c-.113.29-.2.588-.335.871-.176.367-.3.761-.453,1.139-.259.639-.524,1.275-.786,1.913-.162.395-.318.792-.483,1.185-.285.679-.517,1.381-.833,2.049-.168.355-.3.728-.446,1.094-.183.455-.367.911-.549,1.368a4.409,4.409,0,0,0-.148.417.627.627,0,0,1-.658.488c-.593.009-1.187,0-1.78,0H62a.694.694,0,0,1-.641-.462c-.145-.367-.288-.733-.435-1.1-.1-.242-.2-.481-.3-.723q-.251-.613-.5-1.229c-.165-.411-.327-.823-.493-1.234-.1-.243-.2-.485-.3-.727-.269-.651-.541-1.3-.807-1.953-.162-.395-.316-.792-.472-1.189-.24-.612-.456-1.233-.724-1.831-.208-.465-.376-.943-.561-1.415-.042-.107-.065-.225-.243-.233a.809.809,0,0,0-.14.587,6.438,6.438,0,0,1,.069,1.327q0,4.244,0,8.488,0,.962,0,1.924a.625.625,0,0,1-.193.558c-.092.008-.206.024-.319.025-.577,0-1.154,0-1.731,0a2.076,2.076,0,0,1-.247-.008.391.391,0,0,1-.354-.353,3.147,3.147,0,0,1-.008-.345q0-7.945,0-15.89c0-.115-.006-.231,0-.345a.437.437,0,0,1,.4-.429,1.814,1.814,0,0,1,.247-.01c.94,0,1.879,0,2.819,0a.84.84,0,0,1,.623.2" transform="translate(-16.097 -0.421)" fill="#003a96"/>
      <path id="Path_183" data-name="Path 183" d="M169.577.661c.113-.143.267-.127.414-.127q.99,0,1.979,0c.049,0,.1,0,.148,0,.336.016.468.148.47.494,0,.773,0,1.546,0,2.319,0,.872,0,1.744,0,2.616a2.178,2.178,0,0,1-.058.685.6.6,0,0,0-.006.292.63.63,0,0,0,.108.188c.185.007.256-.108.338-.211.122-.153.239-.313.373-.456a2.43,2.43,0,0,1,1.266-.72,4.154,4.154,0,0,1,1.018-.174,1.835,1.835,0,0,0,.242-.039,1.274,1.274,0,0,1,.341-.034,9.207,9.207,0,0,1,1.746.29,3.5,3.5,0,0,1,1.086.562,3.833,3.833,0,0,1,.91.967,4.3,4.3,0,0,1,.577,1.655,22.37,22.37,0,0,1,.085,2.855c.012,2.023.006,4.048,0,6.071,0,.191.051.4-.125.571a.66.66,0,0,1-.176.048q-1.236.006-2.473,0a.935.935,0,0,1-.2-.051.907.907,0,0,1-.09-.222,3.212,3.212,0,0,1-.01-.394c0-2.419,0-4.837,0-7.256a3.031,3.031,0,0,0-.287-1.384,1.875,1.875,0,0,0-.814-.888,2.212,2.212,0,0,0-1.229-.292,1.967,1.967,0,0,1-.346,0,2.18,2.18,0,0,0-1.177.313,2.126,2.126,0,0,0-.677.639,2.232,2.232,0,0,0-.418,1.289c-.019.246-.01.494-.01.74q0,3.406,0,6.811c0,.1,0,.2,0,.3a.386.386,0,0,1-.369.393c-.807.009-1.616,0-2.423,0a.528.528,0,0,1-.2-.084.89.89,0,0,1-.076-.508q0-4.047,0-8.095,0-4.344,0-8.687a.881.881,0,0,1,.053-.475" transform="translate(-50.911 -0.16)" fill="#003a96"/>
      <path id="Path_184" data-name="Path 184" d="M96,18.636a.5.5,0,0,1,.182.5,2,2,0,0,0,0,.974.561.561,0,0,1,0,.243.507.507,0,0,1-.469.441,6.981,6.981,0,0,1-1.914.05,4.45,4.45,0,0,1-1.03-.313,1.613,1.613,0,0,1-.817-.882c-.063-.152-.13-.3-.205-.448a.609.609,0,0,0-.116-.129.221.221,0,0,0-.25.15,2.514,2.514,0,0,1-1,1.059,4.083,4.083,0,0,1-1.406.556,7.412,7.412,0,0,1-1.673.06,2.934,2.934,0,0,1-1.145-.266c-.178-.085-.375-.134-.544-.232a3.672,3.672,0,0,1-1.609-1.991,3.253,3.253,0,0,1-.146-.87,4.852,4.852,0,0,1,.117-1.614,2.672,2.672,0,0,1,.54-1.042,4.483,4.483,0,0,1,2.485-1.494,1.384,1.384,0,0,0,.332-.092,5.154,5.154,0,0,1,1.062-.194,20.517,20.517,0,0,1,2.564-.08.394.394,0,0,0,.374-.15,2.606,2.606,0,0,0-.291-1.781,1.8,1.8,0,0,0-1.492-.918,12.736,12.736,0,0,0-1.827,0,7.905,7.905,0,0,0-1.543.311c-.268.072-.532.163-.817.251a.4.4,0,0,1-.314-.421c0-.493-.007-.987,0-1.48.006-.339.1-.474.446-.556a15.176,15.176,0,0,1,1.541-.311,24.528,24.528,0,0,1,3.206-.08,4.261,4.261,0,0,1,1.45.25c.093.034.187.065.282.091a3.279,3.279,0,0,1,1.423.843,2.463,2.463,0,0,1,.535.763,4.026,4.026,0,0,1,.408,1.708c0,1.858,0,3.717.006,5.575a1.866,1.866,0,0,0,.225,1.04.886.886,0,0,0,.851.482c.2.006.394,0,.587,0m-5.809-3.645v0c-.148,0-.3,0-.445,0a4.4,4.4,0,0,0-1.676.346,1.725,1.725,0,0,0-1,1.082,2.02,2.02,0,0,0-.058.828,1.53,1.53,0,0,0,1.159,1.316,2.526,2.526,0,0,0,1.266-.006A2.19,2.19,0,0,0,91,17.247a4.288,4.288,0,0,0,.351-1.823.385.385,0,0,0-.425-.43c-.246-.009-.494,0-.741,0" transform="translate(-25.174 -2.364)" fill="#003a96"/>
      <path id="Path_185" data-name="Path 185" d="M146,18.7c.015.118.032.213.037.31a8.494,8.494,0,0,0,.051,1.228.509.509,0,0,1-.479.575c-.261.029-.521.066-.783.08a3.705,3.705,0,0,1-2.111-.35,1.847,1.847,0,0,1-.879-.959,2.012,2.012,0,0,0-.2-.4c-.038-.059-.121-.09-.193-.14a1.051,1.051,0,0,0-.146.164,3.071,3.071,0,0,1-1.648,1.411,4.1,4.1,0,0,1-1.586.295c-.247,0-.495.007-.741,0a3.82,3.82,0,0,1-2.2-.78,3.318,3.318,0,0,1-1.286-2.092,4.827,4.827,0,0,1,0-1.856,3.039,3.039,0,0,1,.641-1.365,4.015,4.015,0,0,1,1.578-1.143c.476-.2.971-.3,1.456-.458a4.272,4.272,0,0,1,.729-.107,18.5,18.5,0,0,1,2.612-.084c.148,0,.148,0,.376-.136a2.728,2.728,0,0,0-.379-1.967,1.272,1.272,0,0,0-.388-.37,2.431,2.431,0,0,0-1.352-.4c-.428,0-.857-.006-1.285.01a4.3,4.3,0,0,0-.78.1,10.215,10.215,0,0,0-1.569.414,1.1,1.1,0,0,1-.138.052.245.245,0,0,1-.3-.193,1.87,1.87,0,0,1-.02-.294c0-.263.007-.526,0-.789-.007-.212-.032-.423-.055-.7,0-.012.029-.09.061-.164a.515.515,0,0,1,.406-.323c.532-.094,1.051-.24,1.594-.3a27.8,27.8,0,0,1,3.156-.071,4.678,4.678,0,0,1,1.309.212c.063.018.122.051.186.064a3.15,3.15,0,0,1,2.065,1.478,3.1,3.1,0,0,1,.364.91,4.183,4.183,0,0,1,.132,1.022c-.008,1.217,0,2.433,0,3.65,0,.658.007,1.315,0,1.972a2.216,2.216,0,0,0,.186.858.888.888,0,0,0,.883.586A1.845,1.845,0,0,1,146,18.7M140.155,15h0c-.23,0-.462-.015-.691,0a3.7,3.7,0,0,0-1.65.432,1.568,1.568,0,0,0-.822,1.046,2.3,2.3,0,0,0,.024,1.063,1.4,1.4,0,0,0,.989,1,2.324,2.324,0,0,0,1.5-.016,2.268,2.268,0,0,0,1.425-1.273,4.624,4.624,0,0,0,.337-1.476,3.5,3.5,0,0,0,0-.492.267.267,0,0,0-.278-.284c-.279-.01-.558,0-.838,0" transform="translate(-40.171 -2.365)" fill="#003a96"/>
      <path id="Path_186" data-name="Path 186" d="M234.738,17.96a.553.553,0,0,1,.2.446c0,.493,0,.987,0,1.48a.452.452,0,0,1-.313.455,4.777,4.777,0,0,1-.567.162c-.192.046-.387.076-.578.122a3.66,3.66,0,0,1-.78.1c-.2,0-.39.069-.586.072-.807.009-1.617.042-2.421-.007a6.552,6.552,0,0,1-1.591-.312,5.433,5.433,0,0,1-1.5-.719,4.566,4.566,0,0,1-1.353-1.412c-.083-.141-.173-.278-.255-.421a5.96,5.96,0,0,1-.59-1.715,7.341,7.341,0,0,1-.127-1.171,9.657,9.657,0,0,1-.006-.987,8.726,8.726,0,0,1,.337-2.326,6.568,6.568,0,0,1,.955-1.984,5.117,5.117,0,0,1,2.14-1.679,6.562,6.562,0,0,1,1.809-.453,5.688,5.688,0,0,1,2.012.1,6.911,6.911,0,0,1,1.222.372,4.289,4.289,0,0,1,2.322,2.355,8.849,8.849,0,0,1,.5,1.995,16.8,16.8,0,0,1,.078,2.312.384.384,0,0,1-.42.437c-.132.007-.264,0-.4,0h-6.674c-.083,0-.165,0-.248,0a.419.419,0,0,0-.453.3c.033.232.049.462.1.684a2.827,2.827,0,0,0,1.746,2.1,3.707,3.707,0,0,0,1.438.288c.346,0,.693.007,1.038-.008a5.811,5.811,0,0,0,1.313-.185A9.638,9.638,0,0,0,234.407,18a1.1,1.1,0,0,1,.331-.037m-2.322-5.026a.6.6,0,0,0,.052-.157,3.807,3.807,0,0,0-.345-1.858,1.952,1.952,0,0,0-1.8-1.154c-.2-.006-.395,0-.592,0a1.881,1.881,0,0,0-1.086.416,2.915,2.915,0,0,0-1,1.595c-.091.327-.125.67-.181.985a.412.412,0,0,0,.407.263c.049,0,.1,0,.148,0h3.944a1.2,1.2,0,0,0,.246-.009,1.117,1.117,0,0,0,.211-.087" transform="translate(-67.35 -2.274)" fill="#003a96"/>
      <path id="Path_187" data-name="Path 187" d="M200.7,20.626a.4.4,0,0,1-.374.146c-.33,0-.659,0-.989,0-.2,0-.393.023-.644.039a.719.719,0,0,1-.521-.646c-.059-.305-.138-.607-.219-.907a.3.3,0,0,0-.129-.141.455.455,0,0,0-.155-.029.676.676,0,0,0-.115.15,2.571,2.571,0,0,1-1.3,1.346,4.45,4.45,0,0,1-1.993.474c-.066,0-.132,0-.2,0a5.569,5.569,0,0,1-1.367-.15,3.708,3.708,0,0,1-1.385-.613,3.189,3.189,0,0,1-1.272-1.815,7.548,7.548,0,0,1-.276-2.089c.006-2.582,0-5.165,0-7.748a1.979,1.979,0,0,1,.012-.3.377.377,0,0,1,.332-.316,1.546,1.546,0,0,1,.2-.008c.66,0,1.319,0,1.979,0a.623.623,0,0,1,.509.166.967.967,0,0,1,.047.473c0,2.254.008,4.507-.008,6.761a9.382,9.382,0,0,0,.12,1.42,1.93,1.93,0,0,0,1.02,1.433,2.862,2.862,0,0,0,1.87.29,2.014,2.014,0,0,0,1.653-1.5,6.919,6.919,0,0,0,.181-1.46c-.007-2.3,0-4.606,0-6.909,0-.163.008-.326.011-.453a.57.57,0,0,1,.516-.217c.479,0,.956,0,1.434,0,.2,0,.4.012.593,0a.448.448,0,0,1,.522.544c0,.049,0,.1,0,.148q0,5.724,0,11.449a1.013,1.013,0,0,1-.043.46" transform="translate(-56.99 -2.409)" fill="#003a96"/>
      <path id="Path_188" data-name="Path 188" d="M264.885,16.737a.422.422,0,0,1,.334.426c0,.477,0,.954,0,1.432a.7.7,0,0,1-.22.483c-.132.034-.3.088-.479.122a11.675,11.675,0,0,1-2.068.1,5.507,5.507,0,0,1-1.462-.2,3,3,0,0,1-1.623-.971,2.362,2.362,0,0,1-.567-1.129c-.015-.1-.037-.193-.057-.29A6.123,6.123,0,0,1,258.6,15.5c.008-1.958,0-3.915,0-5.873a2.79,2.79,0,0,1,0-.3.435.435,0,0,0-.474-.5c-.346.015-.693.008-1.038,0a2,2,0,0,1-.633-.038.594.594,0,0,1-.213-.484c0-.411,0-.822,0-1.234a.607.607,0,0,1,.2-.467,2.569,2.569,0,0,1,.311-.038c.412,0,.824,0,1.236,0,.146,0,.292-.013.4-.017a.625.625,0,0,0,.2-.569q0-1.012,0-2.023c0-.163.006-.326.008-.437a.616.616,0,0,1,.451-.353c.459-.129.918-.257,1.375-.392.22-.065.436-.142.654-.216a.516.516,0,0,1,.489.019.618.618,0,0,1,.092.454c0,.954,0,1.909,0,2.862a3.233,3.233,0,0,0,.01.395.724.724,0,0,0,.08.2.823.823,0,0,0,.508.081c.725,0,1.45,0,2.176,0a2.844,2.844,0,0,1,.346.008.449.449,0,0,1,.432.454,1.3,1.3,0,0,1,0,.148c0,.362,0,.723,0,1.085,0,.252-.01.252-.246.553-.154,0-.333.015-.512.015-.775,0-1.55,0-2.324,0A.461.461,0,0,0,261.7,9a3.429,3.429,0,0,0-.03.343q0,3.011.01,6.021a2.691,2.691,0,0,0,.074.583,1.322,1.322,0,0,0,1.239,1.082,1.87,1.87,0,0,0,.2,0,5.027,5.027,0,0,0,1.7-.295" transform="translate(-76.956 -0.756)" fill="#003a96"/>
      <path id="Path_189" data-name="Path 189" d="M247.213,2.557a.586.586,0,0,1,.158.5q0,.814,0,1.628,0,.715,0,1.43c0,.147-.011.3.135.411a.939.939,0,0,0,.476.05q1.137,0,2.274,0a.689.689,0,0,1,.567.178,1.63,1.63,0,0,1,.028.22c0,.46,0,.921,0,1.381a1.68,1.68,0,0,1-.016.245.254.254,0,0,1-.229.224,3.525,3.525,0,0,1-.394.017c-.742,0-1.483,0-2.225,0a.985.985,0,0,0-.511.064.914.914,0,0,0-.094.192,1.017,1.017,0,0,0-.013.245q0,3.058.009,6.117a1.583,1.583,0,0,0,.094.677,1.4,1.4,0,0,0,1.307.892,3.436,3.436,0,0,0,1.592-.242.551.551,0,0,1,.143-.038.276.276,0,0,1,.325.23.285.285,0,0,1,.008.049v1.785a.8.8,0,0,1-.637.393,14.415,14.415,0,0,1-2.018.1,5.118,5.118,0,0,1-1.273-.129,3.361,3.361,0,0,1-1.991-1.191,2.794,2.794,0,0,1-.506-1.216,6.325,6.325,0,0,1-.115-1.222c0-1.973,0-3.946,0-5.919,0-.115,0-.23,0-.345-.013-.306-.146-.438-.466-.444-.362-.007-.725,0-1.087,0-.132,0-.264.006-.4,0a.387.387,0,0,1-.408-.4q-.016-.74,0-1.48a.364.364,0,0,1,.379-.374c.379-.012.758,0,1.137-.006.148,0,.3.007.445,0a.392.392,0,0,0,.392-.367,2.227,2.227,0,0,0,.006-.246c0-.51,0-1.019,0-1.529a2.985,2.985,0,0,0-.04-.439.694.694,0,0,1,.587-.866A2.919,2.919,0,0,0,245.373,3c.469-.21.985-.257,1.458-.449a.466.466,0,0,1,.382,0" transform="translate(-72.661 -0.755)" fill="#003a96"/>
      <path id="Path_190" data-name="Path 190" d="M103.8,20.314c-.045-.137-.09-.276-.129-.4a4.143,4.143,0,0,0,.022-1.49.462.462,0,0,1,.13-.449.676.676,0,0,1,.528.031,3.118,3.118,0,0,0,.895.268c.16.024.311.11.47.146a7.447,7.447,0,0,0,2.1.211,2.4,2.4,0,0,0,1.2-.41.885.885,0,0,0,.364-.623,1.177,1.177,0,0,0-.414-1.2,3.536,3.536,0,0,0-.618-.4c-.534-.255-1.082-.479-1.619-.729a7.039,7.039,0,0,1-1.638-.9A3.746,3.746,0,0,1,104,13.118a2.5,2.5,0,0,1-.253-.994c-.009-.345-.008-.691,0-1.036a2.148,2.148,0,0,1,.283-1.029,4.1,4.1,0,0,1,.623-.88,4.12,4.12,0,0,1,1.77-1.028,5.789,5.789,0,0,1,1.893-.278c.495.008.989,0,1.483.013a7.207,7.207,0,0,1,1.837.333.435.435,0,0,1,.3.357.5.5,0,0,1,.008.1q0,.84,0,1.679a.546.546,0,0,1-.125.335.384.384,0,0,1-.358,0,7.687,7.687,0,0,0-3.184-.543,1.828,1.828,0,0,0-.975.295,1.13,1.13,0,0,0-.554.822,1.33,1.33,0,0,0,.672.931c.288.159.572.327.869.465.553.254,1.116.485,1.672.733a4.672,4.672,0,0,1,2.063,1.694,3.944,3.944,0,0,1,.411,2.9,3.269,3.269,0,0,1-1.642,2.178,5.335,5.335,0,0,1-1.567.583,9.567,9.567,0,0,1-1.22.155,13.972,13.972,0,0,1-1.483,0,7.475,7.475,0,0,1-1.7-.238c-.189-.055-.381-.106-.574-.143a.977.977,0,0,1-.45-.207" transform="translate(-31.135 -2.364)" fill="#003a96"/>
      <path id="Path_191" data-name="Path 191" d="M127.081,8.317a.537.537,0,0,1,.048.132q.007.987.01,1.973a.285.285,0,0,1-.205.31.235.235,0,0,1-.088,0,8.907,8.907,0,0,0-2.09-.546,4.715,4.715,0,0,0-1.767.058,1.4,1.4,0,0,0-.925.75.517.517,0,0,0-.015.474,1.546,1.546,0,0,0,.545.681,6.519,6.519,0,0,0,.956.512c.583.267,1.186.489,1.764.765a4.816,4.816,0,0,1,1.822,1.471,2.935,2.935,0,0,1,.6,1.583c.011.163.075.325.069.486a3.9,3.9,0,0,1-.675,2.27,3.584,3.584,0,0,1-1.029.9,5.108,5.108,0,0,1-1.7.64,8.044,8.044,0,0,1-1.174.127,12.872,12.872,0,0,1-1.335,0,7.6,7.6,0,0,1-2.136-.32c-.108-.038-.225-.052-.334-.083a.586.586,0,0,1-.49-.6c0-.065,0-.132,0-.2,0-.46,0-.921,0-1.382,0-.308.128-.419.43-.38a1.578,1.578,0,0,1,.329.1,11.027,11.027,0,0,0,2.05.516,9.266,9.266,0,0,0,1.18.083,3.094,3.094,0,0,0,.777-.125,1.4,1.4,0,0,0,.357-.166,1.144,1.144,0,0,0,.245-1.877,2.523,2.523,0,0,0-.642-.45c-.53-.262-1.076-.494-1.616-.736a8.464,8.464,0,0,1-1.529-.8,3.888,3.888,0,0,1-.933-.865,2.6,2.6,0,0,1-.57-1.443c0-.146-.075-.291-.069-.435a4.126,4.126,0,0,1,.3-1.632,3.879,3.879,0,0,1,.565-.862,2.5,2.5,0,0,1,.524-.444,3.947,3.947,0,0,1,1.269-.635,7.144,7.144,0,0,1,.9-.23,6.809,6.809,0,0,1,.685-.064c.511,0,1.022,0,1.533,0a8.305,8.305,0,0,1,2.184.341,1.046,1.046,0,0,1,.185.1" transform="translate(-35.717 -2.367)" fill="#003a96"/>
      <path id="Path_192" data-name="Path 192" d="M217.453,8.408a1.363,1.363,0,0,1,.035.22c0,.576,0,1.151,0,1.727a.337.337,0,0,1-.22.374c-.07-.017-.165-.038-.257-.066-.425-.127-.845-.278-1.276-.379a6.431,6.431,0,0,0-1.024-.133c-.311-.021-.626,0-.939,0a1.737,1.737,0,0,0-1.123.449.832.832,0,0,0-.068,1.23,2.7,2.7,0,0,0,.958.679c.68.287,1.364.568,2.028.889a4.914,4.914,0,0,1,1.569,1.091A3.334,3.334,0,0,1,218,16.116a4.737,4.737,0,0,1-.137,2.378,2.816,2.816,0,0,1-.351.646,3.357,3.357,0,0,1-1.6,1.259,7.579,7.579,0,0,1-.742.269,6.762,6.762,0,0,1-.87.158,11.011,11.011,0,0,1-2.119.07,7.746,7.746,0,0,1-2.041-.3c-.157-.048-.319-.079-.474-.133a.529.529,0,0,1-.4-.55c.009-.559,0-1.118,0-1.677a1.483,1.483,0,0,1,.041-.241.84.84,0,0,1,.685.024c.525.251,1.112.294,1.65.5a10.024,10.024,0,0,0,1.819.111,1.9,1.9,0,0,0,1.246-.521,1.045,1.045,0,0,0,.042-1.466,3.609,3.609,0,0,0-1.466-.969,16.413,16.413,0,0,1-2.056-.949,5.417,5.417,0,0,1-.742-.486,3.246,3.246,0,0,1-1.059-1.562,3.775,3.775,0,0,1-.139-1.557,3.334,3.334,0,0,1,.4-1.253,3.431,3.431,0,0,1,1.1-1.172,2.945,2.945,0,0,1,.644-.353A7.171,7.171,0,0,1,212.7,7.96a13.7,13.7,0,0,1,2.858-.064,4.711,4.711,0,0,1,1.449.267.932.932,0,0,1,.445.245" transform="translate(-62.846 -2.359)" fill="#003a96"/>
      <path id="Path_193" data-name="Path 193" d="M275.308,20.909c-.173,0-.422.019-.667,0a8.165,8.165,0,0,1-1.991-.306c-.123-.043-.255-.062-.381-.1a.588.588,0,0,1-.486-.6c0-.033,0-.066,0-.1,0-.493,0-.987,0-1.481,0-.307.129-.415.435-.375a1.585,1.585,0,0,1,.33.1,10.862,10.862,0,0,0,2.05.516,9.268,9.268,0,0,0,1.18.083,3.1,3.1,0,0,0,.777-.125,1.376,1.376,0,0,0,.357-.166,1.15,1.15,0,0,0,.28-1.846,2.433,2.433,0,0,0-.635-.463,4.235,4.235,0,0,0-.4-.2c-.4-.183-.8-.376-1.218-.538a7,7,0,0,1-2.154-1.266,2.305,2.305,0,0,1-.468-.567,2.426,2.426,0,0,1-.455-1.233c0-.227-.073-.455-.07-.682a3.306,3.306,0,0,1,.48-1.784,3.15,3.15,0,0,1,.893-.97,5.733,5.733,0,0,1,1.744-.784,4.525,4.525,0,0,1,.975-.13c.659-.019,1.319-.017,1.978,0A7.837,7.837,0,0,1,279.7,8.2a.373.373,0,0,1,.29.359c.006.1,0,.2,0,.3,0,.427,0,.855,0,1.283a3.14,3.14,0,0,1-.01.345.241.241,0,0,1-.351.221,8.116,8.116,0,0,0-.94-.286,6.623,6.623,0,0,0-2.389-.271,1.659,1.659,0,0,0-1,.36,1.075,1.075,0,0,0-.149.126.815.815,0,0,0,.018,1.264,2.275,2.275,0,0,0,.756.537c.739.321,1.474.651,2.209.982a4.814,4.814,0,0,1,1.554,1.112,3.114,3.114,0,0,1,.9,2.173c0,.263-.008.527,0,.79a2.8,2.8,0,0,1-.439,1.44,3.578,3.578,0,0,1-2.052,1.6,7.389,7.389,0,0,1-2.793.376" transform="translate(-81.623 -2.365)" fill="#003a96"/>
      <path id="Path_194" data-name="Path 194" d="M162.016,8.317a.57.57,0,0,1,.038.144q.007.912.006,1.825a.315.315,0,0,1-.206.337,5.734,5.734,0,0,1-.917-.246,4.943,4.943,0,0,0-1.751-.213,2.849,2.849,0,0,0-1.047.252,4,4,0,0,0-.763.439,2.577,2.577,0,0,0-.687.884,5.723,5.723,0,0,0-.555,3.158,5.31,5.31,0,0,0,.509,2.038,3.7,3.7,0,0,0,.9,1.1,1.5,1.5,0,0,0,.248.16,4.041,4.041,0,0,0,1.6.432,1.075,1.075,0,0,0,.244-.022,1.775,1.775,0,0,1,.291-.047,3.892,3.892,0,0,0,1.348-.267,4.007,4.007,0,0,1,.425-.127.277.277,0,0,1,.352.25,2.228,2.228,0,0,1,.007.246q0,.716,0,1.431a.6.6,0,0,1-.112.455,3.459,3.459,0,0,1-1,.278,13,13,0,0,1-2.019.085,6.792,6.792,0,0,1-2.177-.343,7.786,7.786,0,0,1-1.38-.642,4.7,4.7,0,0,1-1.317-1.241,5.793,5.793,0,0,1-.99-2.231,9.914,9.914,0,0,1-.2-2.837,6.759,6.759,0,0,1,.131-.873,6.27,6.27,0,0,1,.169-.768,5,5,0,0,1,.5-1.224c.194-.3.382-.609.6-.9a4.4,4.4,0,0,1,1.42-1.2,6.227,6.227,0,0,1,2.042-.691,6.148,6.148,0,0,1,1.03-.084c.4,0,.791.015,1.186,0A8.413,8.413,0,0,1,161.311,8a1.02,1.02,0,0,1,.7.316" transform="translate(-45.903 -2.363)" fill="#003a96"/>
      <path id="Path_195" data-name="Path 195" d="M.064,7.558A24.811,24.811,0,0,1,.029,4.509a5.318,5.318,0,0,1,.985-.393c.511-.178,1.033-.323,1.547-.493.4-.134.8-.285,1.2-.426.155-.054.313-.1.469-.148q.3-.1.607-.2c.093-.031.183-.073.277-.1.6-.183,1.182-.39,1.772-.589.466-.157.94-.291,1.407-.443.2-.066.394-.169.6-.229.645-.19,1.277-.419,1.915-.63.514-.17,1.038-.309,1.546-.493.325-.118.646-.239.98-.327a.9.9,0,0,1,.53.008c.625.2,1.248.4,1.866.621.463.164.939.291,1.408.439.157.05.309.113.462.17.124.045.245.1.371.133.239.064.467.153.7.236.462.165.94.288,1.408.44s.931.319,1.4.481c.062.022.119.057.182.077.453.141.91.274,1.362.422.483.158.961.332,1.443.5.171.057.346.1.516.157.606.206,1.212.411,1.814.627a1.181,1.181,0,0,1,.26.174,1,1,0,0,1,.039.176Q27.1,6,27.1,7.307c0,.134,0,.267-.167.351-.261-.089-.54-.176-.815-.278-.63-.234-1.274-.426-1.911-.641-.451-.152-.9-.32-1.346-.471-.4-.134-.814-.251-1.219-.382-.25-.08-.5-.176-.744-.26-.186-.062-.377-.111-.563-.176q-.952-.332-1.914-.634c-.516-.163-1.018-.365-1.532-.537-.4-.136-.816-.244-1.22-.378-.545-.18-1.091-.361-1.627-.565a1.153,1.153,0,0,0-.817-.029c-.217.076-.428.171-.646.242-.358.117-.721.219-1.081.331-.125.039-.247.089-.372.131-.419.141-.839.28-1.257.422-.311.106-.621.215-.931.323-.046.016-.09.042-.136.057-.454.14-.91.274-1.362.42-.218.07-.427.172-.645.243-.327.107-.662.194-.989.3-.265.087-.525.19-.786.29-.306.118-.628.186-.938.3-.74.267-1.5.486-2.247.73-.218.071-.428.168-.646.239-.281.091-.565.176-.851.246a.841.841,0,0,1-.274-.022" transform="translate(0 0)" fill="#009ca6"/>
      <path id="Path_196" data-name="Path 196" d="M.036,44.173V41.255A1.76,1.76,0,0,1,.76,40.83a6.152,6.152,0,0,1,1.528-.364,1.244,1.244,0,0,0,.192-.044,8.143,8.143,0,0,1,1.9-.251,5.164,5.164,0,0,0,.535-.062c.114-.013.229-.023.344-.027a2.358,2.358,0,0,0,.684-.076,1.135,1.135,0,0,1,.343-.022,10.238,10.238,0,0,0,1.136-.019,30.405,30.405,0,0,1,3.649-.077c2.719-.018,5.438-.01,8.157-.014a1.729,1.729,0,0,0,.635-.062.55.55,0,0,1,.2-.022,9.664,9.664,0,0,0,1.66-.184c.29-.046.588-.051.877-.113.176-.038.357-.057.53-.1.555-.146,1.125-.228,1.667-.428a8.846,8.846,0,0,0,1.646-.772,2.961,2.961,0,0,0,.337-.288.239.239,0,0,1,.3-.045,2.616,2.616,0,0,1,.037.312c0,.707-.024,1.415.01,2.121a1.089,1.089,0,0,1-.549,1.029,8.8,8.8,0,0,1-1.167.636c-.3.134-.623.2-.916.355a.315.315,0,0,1-.144.029,2.12,2.12,0,0,0-.716.166,3.293,3.293,0,0,1-.721.151c-.439.049-.872.146-1.308.224-.048.009-.094.035-.142.039-.458.039-.915.087-1.373.109-.411.02-.824.009-1.236.014a2.718,2.718,0,0,0-.735.066,1.818,1.818,0,0,1-.491.021l-9.639.012a1.94,1.94,0,0,0-.636.063A1.26,1.26,0,0,1,7,43.229a8.176,8.176,0,0,0-1.574.09,1.606,1.606,0,0,1-.394.011,7.846,7.846,0,0,0-1.66.176c-.337.065-.683.083-1.024.129a3.01,3.01,0,0,0-.433.09,8.308,8.308,0,0,0-1.407.441.559.559,0,0,1-.474.006" transform="translate(-0.011 -11.36)" fill="#009ca6"/>
      <path id="Path_197" data-name="Path 197" d="M27.066,45.9c.048.372.059,2.36.017,2.946a2.376,2.376,0,0,1-.624.593,7.147,7.147,0,0,1-1.914.875c-.7.2-1.4.344-2.1.5a4.492,4.492,0,0,1-.584.074c-.375.034-.749.081-1.124.125-.162.019-.323.054-.486.064a5.182,5.182,0,0,0-1.128.088,1.727,1.727,0,0,1-.443.011q-4.993,0-9.985.01a5.379,5.379,0,0,0-1.13.067,4.476,4.476,0,0,1-.74.02,9.483,9.483,0,0,0-1.474.084c-.448.088-.917.059-1.37.129a9.547,9.547,0,0,0-1.6.231,2.312,2.312,0,0,1-.434.082,8.091,8.091,0,0,0-1.7.521l-.162-.073c-.021-.041-.049-.069-.049-.1,0-.952,0-1.9,0-2.878a3.526,3.526,0,0,1,1.349-.565,3.433,3.433,0,0,0,.432-.1A5.574,5.574,0,0,1,2.969,48.4c.374-.02.742-.138,1.117-.16.476-.029.941-.144,1.422-.128a3.8,3.8,0,0,0,1.08-.071,2.023,2.023,0,0,1,.493-.015l10.133-.013a2.266,2.266,0,0,0,.684-.063,1.81,1.81,0,0,1,.442-.024,6.709,6.709,0,0,0,1.425-.085,2.348,2.348,0,0,1,.493-.017,2.6,2.6,0,0,0,.832-.079.381.381,0,0,1,.147-.013,9.221,9.221,0,0,0,1.7-.243,8.872,8.872,0,0,0,1.576-.376,5.589,5.589,0,0,0,2.259-1.163.229.229,0,0,1,.295-.05" transform="translate(-0.009 -13.776)" fill="#009ca6"/>
      <path id="Path_198" data-name="Path 198" d="M.38,16.112l-.313-.219A.284.284,0,0,1,.029,15.8c0-.886,0-1.774,0-2.649a.524.524,0,0,1,.448-.195c.115,0,.231,0,.347,0H26.876c.165.069.225.161.227.288,0,.213,0,.427,0,.641q0,.789,0,1.578a2.687,2.687,0,0,1-.013.344.368.368,0,0,1-.3.292,3.706,3.706,0,0,1-.395.01H.38" transform="translate(-0.008 -3.892)" fill="#009ca6"/>
      <path id="Path_199" data-name="Path 199" d="M3.516,32.258a.411.411,0,0,1-.38.136H1.554c-.346,0-.693,0-1.038,0a.615.615,0,0,1-.457-.145.255.255,0,0,1-.024-.043.125.125,0,0,1-.012-.047Q.017,26.684.013,21.208c0-.066,0-.132.008-.2a.449.449,0,0,1,.034-.1c.12-.1.274-.073.418-.075.676,0,1.352,0,2.027,0,.245,0,.489-.029.8-.05l.25.2q0,5.568,0,11.109a.66.66,0,0,1-.035.162" transform="translate(-0.004 -6.242)" fill="#009ca6"/>
      <path id="Path_200" data-name="Path 200" d="M22.618,20.888a2.321,2.321,0,0,1,.267-.035,29.467,29.467,0,0,1,3.036.043.677.677,0,0,1,.1.193,2,2,0,0,1,.012.344q0,5.2,0,10.4c0,.174.056.365-.108.521a.425.425,0,0,1-.128.043q-1.506.007-3.013.006a.691.691,0,0,1-.166-.036.365.365,0,0,1-.118-.423,2.936,2.936,0,0,0,.069-.879q0-4.51,0-9.021a2.235,2.235,0,0,0-.063-.683.41.41,0,0,1,.115-.473" transform="translate(-6.749 -6.258)" fill="#009ca6"/>
      <path id="Path_201" data-name="Path 201" d="M14.717,32.292a.409.409,0,0,1-.37.122H11.726a.413.413,0,0,1-.375-.122.389.389,0,0,1-.04-.122q-.006-5.5-.006-11.005a1.143,1.143,0,0,1,.042-.21,1.15,1.15,0,0,1,.267-.091c.181-.015.362-.006.544-.007q1.015,0,2.028,0c.163,0,.327.006.51.01a1.687,1.687,0,0,1,.069.294c.009.213,0,.427,0,.642q0,5.009,0,10.019a.867.867,0,0,1-.049.471" transform="translate(-3.395 -6.263)" fill="#009ca6"/>
      <path id="Path_202" data-name="Path 202" d="M33.812,31.657a1.266,1.266,0,0,1-.034-.2Q33.785,26.226,33.8,21c0-.029.028-.057.059-.117a2.744,2.744,0,0,1,.311-.034c.742,0,1.483,0,2.226,0,.212,0,.424-.015.647-.024a.346.346,0,0,1,.2.3c.006.115,0,.229,0,.345v7.992c0,.083,0,.165,0,.247a.792.792,0,0,1-.318.688,5.718,5.718,0,0,1-1.065.7,14.039,14.039,0,0,1-1.621.579.506.506,0,0,1-.428-.022" transform="translate(-10.144 -6.253)" fill="#009ca6"/>
    </g>
  </g>
</svg>
