<svg id="Groupe_181" data-name="Groupe 181" xmlns="http://www.w3.org/2000/svg" width="61.424" height="71.065" viewBox="0 0 61.424 71.065">
  <path id="Tracé_61" data-name="Tracé 61" d="M61.424,1.731V53.484a1.487,1.487,0,0,1-.771,1.3L31.211,70.936a1.042,1.042,0,0,1-1,0l-5.928-3.25a.782.782,0,0,1,0-1.37l28.694-15.74a1.485,1.485,0,0,0,.771-1.3V10.088a.833.833,0,0,0-.968-.822,139.282,139.282,0,0,1-44.127,0,.833.833,0,0,0-.968.822l0,39.185a1.485,1.485,0,0,0,.771,1.3L24,59.109a.745.745,0,0,1,0,1.307l-6.045,3.315a.917.917,0,0,1-.883,0L.773,54.747A1.486,1.486,0,0,1,0,53.446V7.6H0V1.087A1.088,1.088,0,0,1,1.336.028a131.591,131.591,0,0,0,58.747,0,1.088,1.088,0,0,1,1.336,1.059v.649Z" transform="translate(0 0)" fill="#117ba3"/>
  <path id="Tracé_62" data-name="Tracé 62" d="M54.11,36.8c0,7.495-5.033,11.374-12,11.374h-1.1a.787.787,0,0,1-.787-.787V42.229a.858.858,0,0,1,.858-.858h.143q.446,0,.853-.031c3.2-.243,4.542-1.9,4.542-4.542,0-2.992-1.679-4.652-5.494-4.652H26.034v1.967a.525.525,0,0,1-.875.392l-5.923-5.271a.96.96,0,0,1,0-1.435l5.923-5.271a.525.525,0,0,1,.875.393V24.89H42.112c6.965,0,12,4.329,12,11.909m-17.969-1h-5.93a.781.781,0,0,0-.77.791V57.82a1.314,1.314,0,0,0,.66,1.146l5.807,3.274a.678.678,0,0,0,1-.611V36.594a.781.781,0,0,0-.77-.791" transform="translate(-6.239 -7.387)" fill="#8db72f"/>
</svg>
